<?xml version="1.0" standalone="no"?>
<!DOCTYPE svg PUBLIC "-//W3C//DTD SVG 20010904//EN"
 "http://www.w3.org/TR/2001/REC-SVG-20010904/DTD/svg10.dtd">
<svg version="1.0" xmlns="http://www.w3.org/2000/svg"
 width="512.000000pt" height="512.000000pt" viewBox="0 0 512.000000 512.000000"
 preserveAspectRatio="xMidYMid meet">
<metadata>
Created by potrace 1.14, written by Peter Selinger 2001-2017
</metadata>
<g transform="translate(0.000000,512.000000) scale(0.100000,-0.100000)"
fill="#000000" stroke="none">
<path d="M4177 4613 c-1 0 -38 -4 -82 -7 -129 -10 -187 -15 -240 -20 -27 -3
-79 -8 -115 -11 -130 -11 -186 -16 -230 -20 -25 -3 -74 -7 -110 -10 -36 -2
-83 -7 -105 -9 -22 -3 -79 -8 -127 -12 -48 -3 -96 -7 -105 -9 -10 -2 -22 -4
-27 -4 -5 -1 -6 -29 -2 -63 21 -197 21 -191 -3 -183 -11 3 -33 9 -48 11 -16 3
-48 10 -73 15 -25 6 -56 13 -70 15 -24 4 -41 8 -100 19 -38 8 -382 66 -410 69
-86 11 -136 19 -142 22 -3 2 -28 7 -55 10 -26 3 -56 7 -65 10 -10 3 -28 7 -40
9 -13 2 -66 11 -118 21 -52 9 -107 18 -122 21 -46 7 -108 -35 -223 -151 -228
-229 -479 -602 -500 -740 -6 -45 -82 -162 -160 -250 -5 -6 -28 -34 -50 -61
-22 -28 -48 -59 -57 -70 -212 -253 -577 -739 -704 -940 -80 -125 -85 -138 -87
-223 -1 -66 2 -83 23 -117 33 -54 77 -93 123 -107 l37 -11 0 -111 c0 -135 10
-172 54 -215 29 -28 53 -38 153 -63 65 -16 129 -31 143 -34 14 -2 32 -7 40
-10 8 -3 26 -8 40 -11 27 -5 32 -6 70 -16 57 -15 355 -88 374 -91 12 -2 28 -7
36 -10 8 -3 26 -7 40 -10 14 -2 102 -23 195 -46 94 -23 177 -43 185 -45 8 -2
62 -15 120 -30 58 -14 116 -28 130 -31 14 -3 33 -7 42 -10 9 -3 25 -6 35 -9
10 -2 74 -17 143 -35 69 -18 132 -33 140 -35 8 -2 92 -22 185 -45 369 -90 421
-102 435 -105 8 -2 89 -22 180 -45 206 -53 293 -58 395 -26 6 2 13 3 16 2 4 0
15 7 25 16 11 9 26 18 34 20 8 2 37 25 64 51 51 50 77 61 29 12 -22 -22 -24
-26 -7 -17 12 6 29 26 37 45 9 18 24 41 34 50 18 15 19 15 19 -19 0 -23 -4
-33 -12 -30 -17 6 -46 -29 -49 -59 -2 -14 0 -23 5 -20 5 3 10 2 13 -2 2 -5 2
-3 1 4 -6 22 13 23 32 1 17 -19 17 -21 2 -15 -10 4 -18 2 -18 -3 0 -6 7 -10
15 -10 8 0 15 -4 15 -10 0 -15 84 -68 116 -74 16 -2 29 -5 29 -6 0 -8 166 -12
222 -6 61 6 158 53 172 82 6 13 7 24 3 24 -9 0 -7 94 3 111 6 8 4 10 -6 4 -8
-5 -5 1 5 13 17 20 17 22 2 22 -14 0 -15 4 -6 20 6 11 7 20 3 20 -4 0 -8 14
-8 30 0 17 4 30 9 30 5 0 2 7 -5 17 -12 14 -12 16 1 11 10 -3 15 -17 14 -46
-1 -23 3 -42 8 -42 6 0 5 -7 -2 -15 -9 -10 -9 -15 -1 -15 6 0 11 5 11 12 0 6
12 1 27 -13 15 -13 21 -16 14 -7 -11 15 -11 18 2 18 9 0 19 -9 22 -20 3 -11
11 -20 16 -20 13 0 -19 47 -37 54 -8 3 -14 1 -14 -5 0 -6 -5 -7 -10 -4 -6 4
-8 10 -5 15 3 5 1 11 -3 14 -5 3 -9 21 -10 40 -1 29 2 34 15 29 10 -4 12 -8 5
-11 -7 -2 -8 -11 -2 -27 5 -12 6 -25 4 -28 -3 -3 4 -8 16 -12 11 -4 30 -16 42
-28 11 -12 18 -17 14 -10 -5 9 2 9 31 -1 21 -7 44 -11 51 -9 6 3 12 0 12 -6 0
-6 5 -11 11 -11 5 0 7 5 3 11 -4 7 1 7 16 -1 12 -6 19 -14 16 -17 -3 -3 1 -17
8 -32 19 -38 47 -200 50 -284 0 -10 6 -15 13 -13 7 3 13 -2 13 -10 0 -8 -4
-12 -10 -9 -5 3 -10 -1 -10 -9 0 -8 5 -18 10 -21 7 -4 6 -14 -2 -28 -10 -19
-9 -20 4 -10 31 26 53 132 53 253 0 65 4 118 10 122 6 5 6 8 -2 8 -7 0 -10 10
-7 27 6 32 7 34 26 37 7 1 19 5 26 10 7 4 16 6 19 2 3 -3 12 2 20 10 8 8 19
11 25 8 6 -4 8 -3 5 3 -7 12 28 44 39 35 4 -4 4 -1 -1 7 -4 8 -2 17 6 22 10 6
11 9 2 9 -16 0 -18 81 -2 97 8 8 6 18 -7 37 -17 27 -17 27 8 22 14 -2 31 0 39
5 10 7 6 8 -14 5 -19 -3 -30 1 -37 14 -7 13 -7 21 0 25 6 4 7 11 4 17 -4 6 -8
24 -9 40 -2 20 2 28 14 28 13 0 13 2 2 9 -8 5 -15 21 -17 35 -2 17 1 24 8 20
7 -4 8 -2 4 4 -4 7 -8 39 -8 72 -1 35 -6 60 -12 60 -6 1 0 7 13 14 20 11 21
14 7 19 -11 5 -15 3 -10 -5 4 -7 3 -8 -5 -4 -9 6 -9 11 0 23 7 8 13 23 14 34
1 14 -1 16 -12 8 -9 -8 -13 -8 -13 -1 0 6 5 14 11 18 8 4 7 9 -2 15 -11 7 -10
9 3 9 9 0 20 4 23 10 3 5 0 7 -8 4 -9 -3 -16 3 -20 16 -4 14 -1 20 6 17 7 -3
12 6 13 22 1 14 -1 20 -3 14 -3 -7 -9 -13 -14 -13 -5 0 -4 11 1 26 13 34 13
39 -4 25 -29 -24 -11 16 19 44 24 22 22 21 -13 -5 -23 -17 -40 -25 -37 -17 3
7 -2 20 -12 28 -16 13 -17 12 -4 -3 15 -21 9 -23 -21 -7 -11 6 -31 12 -45 14
-27 3 -39 12 -29 22 4 4 11 1 15 -6 5 -8 11 -9 15 -3 7 11 -21 25 -35 16 -5
-3 -9 -2 -9 1 0 11 44 44 58 45 6 0 11 3 11 8 -4 22 3 34 16 28 8 -3 15 -1 15
4 0 6 5 10 11 10 5 0 7 -4 4 -10 -11 -17 7 -11 21 8 11 14 13 15 14 1 0 -19
-19 -38 -34 -35 -6 2 -8 1 -3 -1 4 -3 5 -9 1 -14 -12 -21 12 -6 29 17 11 15
16 32 12 45 -6 18 -5 19 14 8 15 -10 17 -16 9 -26 -7 -9 -7 -13 1 -13 6 0 11
5 11 11 0 8 4 8 14 0 12 -10 18 -7 30 18 11 20 12 32 5 36 -6 4 -13 4 -16 1
-4 -3 -1 -6 5 -6 9 0 9 -6 0 -25 -6 -14 -14 -22 -17 -17 -3 5 -16 14 -28 21
-22 11 -27 44 -9 48 5 1 12 7 17 15 5 7 14 13 20 13 7 0 17 15 23 33 6 18 14
31 16 28 3 -2 6 7 7 20 4 46 6 54 16 54 6 0 8 3 5 6 -4 3 72 240 168 526 168
499 174 521 163 556 -7 21 -14 65 -15 99 -2 63 -30 134 -96 246 -23 39 -27 55
-22 87 14 84 -19 121 -87 101 -27 -8 -45 -9 -58 -1 -67 35 -146 44 -521 55
-169 5 -258 11 -297 20 -19 4 -23 12 -23 40 0 26 4 35 18 36 9 0 26 2 37 4 11
2 47 7 80 10 58 5 123 13 175 20 14 2 52 7 85 11 115 12 140 48 119 169 -6 38
-15 90 -18 115 -3 25 -8 54 -10 65 -2 11 -7 43 -11 70 -4 28 -11 58 -16 67 -5
10 -43 34 -84 53 -63 31 -83 36 -131 33 -30 -2 -56 -4 -57 -5z m463 -2592 c-6
-13 -16 -19 -23 -14 -8 5 -8 8 1 11 7 2 9 9 6 14 -4 7 -2 8 4 4 7 -4 12 -2 12
5 0 7 3 10 6 7 3 -4 1 -16 -6 -27z m40 -831 c0 -5 -2 -10 -4 -10 -3 0 -8 5
-11 10 -3 6 -1 10 4 10 6 0 11 -4 11 -10z m-508 -64 c4 -18 0 -22 -21 -20 -39
2 -39 3 -36 22 2 9 4 18 4 18 1 1 12 2 25 2 17 0 25 -7 28 -22z m-597 -254 c4
-23 -9 -30 -20 -12 -5 8 -11 7 -21 -1 -20 -16 -17 3 3 28 19 24 31 19 38 -15z
m891 -47 c1 -8 -1 -17 -5 -19 -4 -3 -7 6 -7 19 0 25 8 25 12 0z m4 -67 c0 -19
-16 -5 -17 14 -2 18 0 20 7 8 5 -8 10 -18 10 -22z m-3 -48 c-5 -29 -13 -33
-13 -5 0 14 4 25 8 25 4 0 7 -9 5 -20z m0 -60 c-1 -21 -10 -18 -13 5 -1 8 2
15 6 15 5 0 8 -9 7 -20z"/>
<path d="M4793 2158 c1 -7 -4 -12 -11 -10 -8 1 -11 -2 -7 -8 5 -8 11 -8 21 1
7 6 11 15 8 20 -8 13 -14 11 -11 -3z"/>
<path d="M4755 2120 c27 -12 43 -12 25 0 -8 5 -22 9 -30 9 -10 0 -8 -3 5 -9z"/>
<path d="M4732 2097 c-7 -8 -9 -17 -5 -20 3 -4 1 -7 -5 -7 -7 0 -12 6 -12 13
0 6 -5 4 -11 -6 -6 -9 -14 -15 -18 -13 -4 3 -8 -1 -8 -8 0 -8 7 -12 14 -9 8 3
13 0 11 -7 -2 -7 4 -15 12 -17 9 -3 11 -1 5 4 -15 12 -17 41 -3 39 7 0 14 3
15 8 1 5 7 12 14 17 8 4 11 11 8 14 -4 3 -11 -1 -17 -8z"/>
<path d="M4761 2093 c-1 -6 -4 -20 -7 -30 -5 -17 -5 -17 6 0 6 10 9 23 6 30
-3 9 -5 9 -5 0z"/>
<path d="M4771 2044 c0 -11 3 -14 6 -6 3 7 2 16 -1 19 -3 4 -6 -2 -5 -13z"/>
<path d="M4790 2046 c0 -2 7 -7 16 -10 8 -3 12 -2 9 4 -6 10 -25 14 -25 6z"/>
<path d="M4748 1988 c-12 -9 -13 -19 -7 -33 l9 -20 -3 20 c-1 11 4 25 13 32 8
7 12 13 9 13 -3 0 -12 -6 -21 -12z"/>
<path d="M4654 1958 c-3 -5 -3 -12 0 -15 3 -4 6 -1 6 5 0 7 5 12 11 12 5 0 7
-6 3 -12 -5 -8 -1 -8 12 2 10 8 20 15 22 16 2 1 -9 2 -23 2 -14 0 -28 -5 -31
-10z"/>
<path d="M4705 1947 c-14 -11 -15 -16 -5 -22 9 -6 11 -4 5 5 -6 9 -4 12 7 8 9
-4 15 0 15 8 0 17 1 17 -22 1z"/>
<path d="M4580 1939 c0 -5 5 -7 10 -4 6 3 10 8 10 11 0 2 -4 4 -10 4 -5 0 -10
-5 -10 -11z"/>
<path d="M4786 1938 c3 -5 10 -6 15 -3 13 9 11 12 -6 12 -8 0 -12 -4 -9 -9z"/>
<path d="M4556 1928 c5 -8 2 -9 -10 -5 -9 4 -15 3 -11 -2 9 -15 44 -9 38 6 -3
7 -9 13 -15 13 -5 0 -6 -5 -2 -12z"/>
<path d="M4594 1918 c-3 -5 -3 -12 0 -15 3 -4 6 -1 6 5 0 7 4 12 10 12 5 0 7
-8 4 -17 -5 -17 -5 -17 9 -1 8 10 17 15 20 11 4 -3 7 -2 7 4 0 13 -48 14 -56
1z"/>
<path d="M4670 1923 c5 -2 10 -9 10 -14 0 -6 -5 -7 -10 -4 -6 3 -13 -1 -16 -9
-3 -9 -10 -13 -15 -10 -5 3 -9 0 -9 -5 0 -16 18 -13 28 5 5 9 13 15 18 15 14
-1 11 22 -4 25 -7 1 -8 0 -2 -3z"/>
<path d="M4741 1914 c0 -11 3 -14 6 -6 3 7 2 16 -1 19 -3 4 -6 -2 -5 -13z"/>
<path d="M4572 1886 c7 -8 15 -12 17 -11 5 6 -10 25 -20 25 -5 0 -4 -6 3 -14z"/>
<path d="M4707 1853 c3 -7 6 -13 8 -13 2 0 5 6 8 13 3 8 -1 14 -8 14 -7 0 -11
-6 -8 -14z"/>
<path d="M4705 1820 c-3 -6 1 -7 9 -4 18 7 21 14 7 14 -6 0 -13 -4 -16 -10z"/>
<path d="M4720 1806 c0 -2 8 -10 18 -17 15 -13 16 -12 3 4 -13 16 -21 21 -21
13z"/>
<path d="M4775 1780 c3 -5 8 -10 11 -10 2 0 4 5 4 10 0 6 -5 10 -11 10 -5 0
-7 -4 -4 -10z"/>
<path d="M4776 1662 c-3 -5 1 -9 9 -9 8 0 12 4 9 9 -3 4 -7 8 -9 8 -2 0 -6 -4
-9 -8z"/>
<path d="M4696 1553 c-6 -14 -5 -15 5 -6 7 7 10 15 7 18 -3 3 -9 -2 -12 -12z"/>
<path d="M4735 1401 c-3 -5 -2 -12 3 -15 5 -3 9 1 9 9 0 17 -3 19 -12 6z"/>
<path d="M4699 1273 c-13 -16 -12 -17 4 -4 9 7 17 15 17 17 0 8 -8 3 -21 -13z"/>
<path d="M4755 1251 c-3 -5 -2 -12 3 -15 5 -3 9 1 9 9 0 17 -3 19 -12 6z"/>
<path d="M4713 1155 c0 -8 4 -12 9 -9 5 3 6 10 3 15 -9 13 -12 11 -12 -6z"/>
<path d="M4685 1139 c-4 -6 -5 -12 -2 -15 2 -3 7 2 10 11 7 17 1 20 -8 4z"/>
<path d="M4155 960 c3 -5 11 -10 16 -10 6 0 7 5 4 10 -3 6 -11 10 -16 10 -6 0
-7 -4 -4 -10z"/>
<path d="M4190 940 c0 -5 5 -10 10 -10 6 0 10 5 10 10 0 6 -4 10 -10 10 -5 0
-10 -4 -10 -10z"/>
<path d="M4310 941 c0 -5 8 -15 18 -22 15 -12 16 -12 5 2 -7 9 -10 19 -6 22 3
4 1 7 -5 7 -7 0 -12 -4 -12 -9z"/>
<path d="M4240 920 c-12 -7 -10 -9 8 -7 12 0 22 5 22 9 0 11 -12 10 -30 -2z"/>
<path d="M4373 891 c0 -11 5 -18 9 -15 4 3 5 11 1 19 -7 21 -12 19 -10 -4z"/>
<path d="M4154 880 c0 -13 4 -16 10 -10 7 7 7 13 0 20 -6 6 -10 3 -10 -10z"/>
<path d="M4190 881 c0 -6 4 -13 10 -16 6 -3 7 1 4 9 -7 18 -14 21 -14 7z"/>
<path d="M3450 840 c0 -5 5 -10 10 -10 6 0 10 5 10 10 0 6 -4 10 -10 10 -5 0
-10 -4 -10 -10z"/>
<path d="M3495 821 c6 -11 4 -13 -9 -8 -10 4 -15 3 -11 -4 4 -5 1 -18 -6 -27
-12 -15 -12 -15 7 1 11 9 23 14 27 11 3 -3 4 1 3 10 -1 8 -6 19 -11 23 -4 5
-5 2 0 -6z"/>
<path d="M3386 802 c-2 -4 4 -8 14 -8 10 0 16 4 14 8 -3 4 -9 8 -14 8 -5 0
-11 -4 -14 -8z"/>
<path d="M4190 806 c0 -2 7 -7 16 -10 8 -3 12 -2 9 4 -6 10 -25 14 -25 6z"/>
<path d="M4190 759 c0 -5 5 -7 10 -4 6 3 10 8 10 11 0 2 -4 4 -10 4 -5 0 -10
-5 -10 -11z"/>
<path d="M3470 746 c0 -2 7 -7 16 -10 8 -3 12 -2 9 4 -6 10 -25 14 -25 6z"/>
</g>
</svg>
