<?xml version="1.0" encoding="UTF-8" standalone="no"?>
<!DOCTYPE svg PUBLIC "-//W3C//DTD SVG 1.1//EN"
 "http://www.w3.org/Graphics/SVG/1.1/DTD/svg11.dtd">
<!-- Generated by graphviz version 3.0.0 (20220226.1711)
 -->
<!-- Title: LAB2/forfigureheirs.h Pages: 1 -->
<svg width="672pt" height="252pt"
 viewBox="0.00 0.00 672.00 252.00" xmlns="http://www.w3.org/2000/svg" xmlns:xlink="http://www.w3.org/1999/xlink">
<g id="graph0" class="graph" transform="scale(1 1) rotate(0) translate(4 248)">
<title>LAB2/forfigureheirs.h</title>
<polygon fill="white" stroke="transparent" points="-4,4 -4,-248 668,-248 668,4 -4,4"/>
<!-- Node1 -->
<g id="node1" class="node">
<title>Node1</title>
<g id="a_node1"><a xlink:title=" ">
<polygon fill="#bfbfbf" stroke="black" points="268,-224.5 268,-243.5 376,-243.5 376,-224.5 268,-224.5"/>
<text text-anchor="middle" x="322" y="-231.5" font-family="Helvetica,sans-Serif" font-size="10.00">LAB2/forfigureheirs.h</text>
</a>
</g>
</g>
<!-- Node2 -->
<g id="node2" class="node">
<title>Node2</title>
<g id="a_node2"><a xlink:href="a00035.html" target="_top" xlink:title=" ">
<polygon fill="white" stroke="black" points="90.5,-168.5 90.5,-187.5 171.5,-187.5 171.5,-168.5 90.5,-168.5"/>
<text text-anchor="middle" x="131" y="-175.5" font-family="Helvetica,sans-Serif" font-size="10.00">LAB2/broken.h</text>
</a>
</g>
</g>
<!-- Node1&#45;&gt;Node2 -->
<g id="edge1" class="edge">
<title>Node1&#45;&gt;Node2</title>
<path fill="none" stroke="midnightblue" d="M282.03,-221.7C245.98,-211.51 193.76,-196.74 161.12,-187.52"/>
<polygon fill="midnightblue" stroke="midnightblue" points="281.16,-225.09 291.74,-224.44 283.06,-218.35 281.16,-225.09"/>
</g>
<!-- Node8 -->
<g id="node8" class="node">
<title>Node8</title>
<g id="a_node8"><a xlink:href="a00050.html" target="_top" xlink:title=" ">
<polygon fill="white" stroke="black" points="190,-168.5 190,-187.5 270,-187.5 270,-168.5 190,-168.5"/>
<text text-anchor="middle" x="230" y="-175.5" font-family="Helvetica,sans-Serif" font-size="10.00">LAB2/ellipse.h</text>
</a>
</g>
</g>
<!-- Node1&#45;&gt;Node8 -->
<g id="edge7" class="edge">
<title>Node1&#45;&gt;Node8</title>
<path fill="none" stroke="midnightblue" d="M298.45,-219.18C281.52,-209.24 259.22,-196.15 244.74,-187.65"/>
<polygon fill="midnightblue" stroke="midnightblue" points="296.82,-222.28 307.22,-224.32 300.37,-216.24 296.82,-222.28"/>
</g>
<!-- Node10 -->
<g id="node10" class="node">
<title>Node10</title>
<g id="a_node10"><a xlink:href="a00047.html" target="_top" xlink:title=" ">
<polygon fill="white" stroke="black" points="288.5,-168.5 288.5,-187.5 355.5,-187.5 355.5,-168.5 288.5,-168.5"/>
<text text-anchor="middle" x="322" y="-175.5" font-family="Helvetica,sans-Serif" font-size="10.00">LAB2/line.h</text>
</a>
</g>
</g>
<!-- Node1&#45;&gt;Node10 -->
<g id="edge10" class="edge">
<title>Node1&#45;&gt;Node10</title>
<path fill="none" stroke="midnightblue" d="M322,-213.8C322,-204.91 322,-194.78 322,-187.75"/>
<polygon fill="midnightblue" stroke="midnightblue" points="318.5,-214.08 322,-224.08 325.5,-214.08 318.5,-214.08"/>
</g>
<!-- Node12 -->
<g id="node12" class="node">
<title>Node12</title>
<g id="a_node12"><a xlink:href="a00008.html" target="_top" xlink:title=" ">
<polygon fill="white" stroke="black" points="374,-168.5 374,-187.5 460,-187.5 460,-168.5 374,-168.5"/>
<text text-anchor="middle" x="417" y="-175.5" font-family="Helvetica,sans-Serif" font-size="10.00">LAB2/polygon.h</text>
</a>
</g>
</g>
<!-- Node1&#45;&gt;Node12 -->
<g id="edge13" class="edge">
<title>Node1&#45;&gt;Node12</title>
<path fill="none" stroke="midnightblue" d="M346.32,-219.18C363.8,-209.24 386.83,-196.15 401.77,-187.65"/>
<polygon fill="midnightblue" stroke="midnightblue" points="344.23,-216.34 337.26,-224.32 347.69,-222.43 344.23,-216.34"/>
</g>
<!-- Node14 -->
<g id="node14" class="node">
<title>Node14</title>
<g id="a_node14"><a xlink:href="a00056.html" target="_top" xlink:title=" ">
<polygon fill="white" stroke="black" points="478,-168.5 478,-187.5 570,-187.5 570,-168.5 478,-168.5"/>
<text text-anchor="middle" x="524" y="-175.5" font-family="Helvetica,sans-Serif" font-size="10.00">LAB2/rectangle.h</text>
</a>
</g>
</g>
<!-- Node1&#45;&gt;Node14 -->
<g id="edge16" class="edge">
<title>Node1&#45;&gt;Node14</title>
<path fill="none" stroke="midnightblue" d="M363.79,-221.83C401.93,-211.63 457.48,-196.78 492.14,-187.52"/>
<polygon fill="midnightblue" stroke="midnightblue" points="362.76,-218.48 354.01,-224.44 364.57,-225.24 362.76,-218.48"/>
</g>
<!-- Node3 -->
<g id="node3" class="node">
<title>Node3</title>
<g id="a_node3"><a xlink:href="a00023.html" target="_top" xlink:title=" ">
<polygon fill="white" stroke="black" points="0,-112.5 0,-131.5 92,-131.5 92,-112.5 0,-112.5"/>
<text text-anchor="middle" x="46" y="-119.5" font-family="Helvetica,sans-Serif" font-size="10.00">LAB2/broken.cpp</text>
</a>
</g>
</g>
<!-- Node2&#45;&gt;Node3 -->
<g id="edge2" class="edge">
<title>Node2&#45;&gt;Node3</title>
<path fill="none" stroke="midnightblue" d="M108.81,-162.9C93.22,-153 72.87,-140.07 59.62,-131.65"/>
<polygon fill="midnightblue" stroke="midnightblue" points="107.03,-165.92 117.34,-168.32 110.78,-160.01 107.03,-165.92"/>
</g>
<!-- Node4 -->
<g id="node4" class="node">
<title>Node4</title>
<g id="a_node4"><a xlink:href="a00020.html" target="_top" xlink:title=" ">
<polygon fill="white" stroke="black" points="218,-112.5 218,-131.5 334,-131.5 334,-112.5 218,-112.5"/>
<text text-anchor="middle" x="276" y="-119.5" font-family="Helvetica,sans-Serif" font-size="10.00">LAB2/formainwindow.h</text>
</a>
</g>
</g>
<!-- Node2&#45;&gt;Node4 -->
<g id="edge3" class="edge">
<title>Node2&#45;&gt;Node4</title>
<path fill="none" stroke="midnightblue" d="M163.48,-164.91C190.74,-154.75 228.99,-140.51 253.13,-131.52"/>
<polygon fill="midnightblue" stroke="midnightblue" points="162.13,-161.67 153.98,-168.44 164.57,-168.23 162.13,-161.67"/>
</g>
<!-- Node5 -->
<g id="node5" class="node">
<title>Node5</title>
<g id="a_node5"><a xlink:href="a00017.html" target="_top" xlink:title=" ">
<polygon fill="white" stroke="black" points="224,-56.5 224,-75.5 328,-75.5 328,-56.5 224,-56.5"/>
<text text-anchor="middle" x="276" y="-63.5" font-family="Helvetica,sans-Serif" font-size="10.00">LAB2/mainwindow.h</text>
</a>
</g>
</g>
<!-- Node4&#45;&gt;Node5 -->
<g id="edge4" class="edge">
<title>Node4&#45;&gt;Node5</title>
<path fill="none" stroke="midnightblue" d="M276,-101.8C276,-92.91 276,-82.78 276,-75.75"/>
<polygon fill="midnightblue" stroke="midnightblue" points="272.5,-102.08 276,-112.08 279.5,-102.08 272.5,-102.08"/>
</g>
<!-- Node6 -->
<g id="node6" class="node">
<title>Node6</title>
<g id="a_node6"><a xlink:href="a00062.html" target="_top" xlink:title=" ">
<polygon fill="white" stroke="black" points="176.5,-0.5 176.5,-19.5 259.5,-19.5 259.5,-0.5 176.5,-0.5"/>
<text text-anchor="middle" x="218" y="-7.5" font-family="Helvetica,sans-Serif" font-size="10.00">LAB2/main.cpp</text>
</a>
</g>
</g>
<!-- Node5&#45;&gt;Node6 -->
<g id="edge5" class="edge">
<title>Node5&#45;&gt;Node6</title>
<path fill="none" stroke="midnightblue" d="M259.09,-49.25C248.8,-39.67 236.03,-27.79 227.49,-19.83"/>
<polygon fill="midnightblue" stroke="midnightblue" points="256.98,-52.07 266.68,-56.32 261.75,-46.95 256.98,-52.07"/>
</g>
<!-- Node7 -->
<g id="node7" class="node">
<title>Node7</title>
<g id="a_node7"><a xlink:href="a00032.html" target="_top" xlink:title=" ">
<polygon fill="white" stroke="black" points="277.5,-0.5 277.5,-19.5 392.5,-19.5 392.5,-0.5 277.5,-0.5"/>
<text text-anchor="middle" x="335" y="-7.5" font-family="Helvetica,sans-Serif" font-size="10.00">LAB2/mainwindow.cpp</text>
</a>
</g>
</g>
<!-- Node5&#45;&gt;Node7 -->
<g id="edge6" class="edge">
<title>Node5&#45;&gt;Node7</title>
<path fill="none" stroke="midnightblue" d="M292.89,-49.54C303.41,-39.91 316.57,-27.87 325.35,-19.83"/>
<polygon fill="midnightblue" stroke="midnightblue" points="290.49,-46.99 285.48,-56.32 295.22,-52.15 290.49,-46.99"/>
</g>
<!-- Node8&#45;&gt;Node4 -->
<g id="edge9" class="edge">
<title>Node8&#45;&gt;Node4</title>
<path fill="none" stroke="midnightblue" d="M244.11,-160.43C252.18,-150.97 261.96,-139.48 268.55,-131.75"/>
<polygon fill="midnightblue" stroke="midnightblue" points="241.42,-158.2 237.6,-168.08 246.75,-162.74 241.42,-158.2"/>
</g>
<!-- Node9 -->
<g id="node9" class="node">
<title>Node9</title>
<g id="a_node9"><a xlink:href="a00071.html" target="_top" xlink:title=" ">
<polygon fill="white" stroke="black" points="110,-112.5 110,-131.5 200,-131.5 200,-112.5 110,-112.5"/>
<text text-anchor="middle" x="155" y="-119.5" font-family="Helvetica,sans-Serif" font-size="10.00">LAB2/ellipse.cpp</text>
</a>
</g>
</g>
<!-- Node8&#45;&gt;Node9 -->
<g id="edge8" class="edge">
<title>Node8&#45;&gt;Node9</title>
<path fill="none" stroke="midnightblue" d="M209.69,-162.38C196.14,-152.62 178.76,-140.11 167.27,-131.83"/>
<polygon fill="midnightblue" stroke="midnightblue" points="207.79,-165.32 217.95,-168.32 211.88,-159.64 207.79,-165.32"/>
</g>
<!-- Node10&#45;&gt;Node4 -->
<g id="edge11" class="edge">
<title>Node10&#45;&gt;Node4</title>
<path fill="none" stroke="midnightblue" d="M307.89,-160.43C299.82,-150.97 290.04,-139.48 283.45,-131.75"/>
<polygon fill="midnightblue" stroke="midnightblue" points="305.25,-162.74 314.4,-168.08 310.58,-158.2 305.25,-162.74"/>
</g>
<!-- Node11 -->
<g id="node11" class="node">
<title>Node11</title>
<g id="a_node11"><a xlink:href="a00002.html" target="_top" xlink:title=" ">
<polygon fill="white" stroke="black" points="352.5,-112.5 352.5,-131.5 429.5,-131.5 429.5,-112.5 352.5,-112.5"/>
<text text-anchor="middle" x="391" y="-119.5" font-family="Helvetica,sans-Serif" font-size="10.00">LAB2/line.cpp</text>
</a>
</g>
</g>
<!-- Node10&#45;&gt;Node11 -->
<g id="edge12" class="edge">
<title>Node10&#45;&gt;Node11</title>
<path fill="none" stroke="midnightblue" d="M341.04,-162.1C353.46,-152.38 369.24,-140.03 379.71,-131.83"/>
<polygon fill="midnightblue" stroke="midnightblue" points="338.8,-159.4 333.09,-168.32 343.12,-164.92 338.8,-159.4"/>
</g>
<!-- Node12&#45;&gt;Node4 -->
<g id="edge14" class="edge">
<title>Node12&#45;&gt;Node4</title>
<path fill="none" stroke="midnightblue" d="M385.07,-164.77C358.59,-154.63 321.61,-140.47 298.24,-131.52"/>
<polygon fill="midnightblue" stroke="midnightblue" points="384.07,-168.14 394.66,-168.44 386.57,-161.6 384.07,-168.14"/>
</g>
<!-- Node13 -->
<g id="node13" class="node">
<title>Node13</title>
<g id="a_node13"><a xlink:href="a00041.html" target="_top" xlink:title=" ">
<polygon fill="white" stroke="black" points="448,-112.5 448,-131.5 544,-131.5 544,-112.5 448,-112.5"/>
<text text-anchor="middle" x="496" y="-119.5" font-family="Helvetica,sans-Serif" font-size="10.00">LAB2/polygon.cpp</text>
</a>
</g>
</g>
<!-- Node12&#45;&gt;Node13 -->
<g id="edge15" class="edge">
<title>Node12&#45;&gt;Node13</title>
<path fill="none" stroke="midnightblue" d="M438.03,-162.62C452.47,-152.76 471.14,-139.99 483.34,-131.65"/>
<polygon fill="midnightblue" stroke="midnightblue" points="435.97,-159.79 429.69,-168.32 439.92,-165.57 435.97,-159.79"/>
</g>
<!-- Node14&#45;&gt;Node4 -->
<g id="edge17" class="edge">
<title>Node14&#45;&gt;Node4</title>
<path fill="none" stroke="midnightblue" d="M474.77,-166.28C427.91,-156.08 358.3,-140.92 315.11,-131.52"/>
<polygon fill="midnightblue" stroke="midnightblue" points="474.19,-169.74 484.7,-168.44 475.68,-162.9 474.19,-169.74"/>
</g>
<!-- Node15 -->
<g id="node15" class="node">
<title>Node15</title>
<g id="a_node15"><a xlink:href="a00044.html" target="_top" xlink:title=" ">
<polygon fill="white" stroke="black" points="562,-112.5 562,-131.5 664,-131.5 664,-112.5 562,-112.5"/>
<text text-anchor="middle" x="613" y="-119.5" font-family="Helvetica,sans-Serif" font-size="10.00">LAB2/rectangle.cpp</text>
</a>
</g>
</g>
<!-- Node14&#45;&gt;Node15 -->
<g id="edge18" class="edge">
<title>Node14&#45;&gt;Node15</title>
<path fill="none" stroke="midnightblue" d="M547.24,-162.9C563.56,-153 584.87,-140.07 598.74,-131.65"/>
<polygon fill="midnightblue" stroke="midnightblue" points="545.03,-160.14 538.3,-168.32 548.66,-166.13 545.03,-160.14"/>
</g>
</g>
</svg>
