<?xml version="1.0" encoding="UTF-8" standalone="no"?>
<!DOCTYPE svg PUBLIC "-//W3C//DTD SVG 1.1//EN"
 "http://www.w3.org/Graphics/SVG/1.1/DTD/svg11.dtd">
<!-- Generated by graphviz version 3.0.0 (20220226.1711)
 -->
<!-- Title: LAB2/polygon.h Pages: 1 -->
<svg width="365pt" height="196pt"
 viewBox="0.00 0.00 364.50 196.00" xmlns="http://www.w3.org/2000/svg" xmlns:xlink="http://www.w3.org/1999/xlink">
<g id="graph0" class="graph" transform="scale(1 1) rotate(0) translate(4 192)">
<title>LAB2/polygon.h</title>
<polygon fill="white" stroke="transparent" points="-4,4 -4,-192 360.5,-192 360.5,4 -4,4"/>
<!-- Node1 -->
<g id="node1" class="node">
<title>Node1</title>
<g id="a_node1"><a xlink:title=" ">
<polygon fill="#bfbfbf" stroke="black" points="129.5,-168.5 129.5,-187.5 215.5,-187.5 215.5,-168.5 129.5,-168.5"/>
<text text-anchor="middle" x="172.5" y="-175.5" font-family="Helvetica,sans-Serif" font-size="10.00">LAB2/polygon.h</text>
</a>
</g>
</g>
<!-- Node2 -->
<g id="node2" class="node">
<title>Node2</title>
<g id="a_node2"><a xlink:href="a00053.html" target="_top" xlink:title=" ">
<polygon fill="white" stroke="black" points="132,-112.5 132,-131.5 213,-131.5 213,-112.5 132,-112.5"/>
<text text-anchor="middle" x="172.5" y="-119.5" font-family="Helvetica,sans-Serif" font-size="10.00">forfigureheirs.h</text>
</a>
</g>
</g>
<!-- Node1&#45;&gt;Node2 -->
<g id="edge1" class="edge">
<title>Node1&#45;&gt;Node2</title>
<path fill="none" stroke="midnightblue" d="M172.5,-168.08C172.5,-161.01 172.5,-150.86 172.5,-141.99"/>
<polygon fill="midnightblue" stroke="midnightblue" points="176,-141.75 172.5,-131.75 169,-141.75 176,-141.75"/>
</g>
<!-- Node3 -->
<g id="node3" class="node">
<title>Node3</title>
<g id="a_node3"><a xlink:title=" ">
<polygon fill="white" stroke="#bfbfbf" points="0,-0.5 0,-19.5 91,-19.5 91,-0.5 0,-0.5"/>
<text text-anchor="middle" x="45.5" y="-7.5" font-family="Helvetica,sans-Serif" font-size="10.00">QGraphicsScene</text>
</a>
</g>
</g>
<!-- Node2&#45;&gt;Node3 -->
<g id="edge2" class="edge">
<title>Node2&#45;&gt;Node3</title>
<path fill="none" stroke="midnightblue" d="M131.77,-113.1C109.05,-106.71 81.91,-95.45 64.5,-76 53.11,-63.28 48.53,-44.08 46.7,-29.84"/>
<polygon fill="midnightblue" stroke="midnightblue" points="50.17,-29.33 45.74,-19.71 43.2,-29.99 50.17,-29.33"/>
</g>
<!-- Node4 -->
<g id="node4" class="node">
<title>Node4</title>
<g id="a_node4"><a xlink:title=" ">
<polygon fill="white" stroke="#bfbfbf" points="73.5,-56.5 73.5,-75.5 177.5,-75.5 177.5,-56.5 73.5,-56.5"/>
<text text-anchor="middle" x="125.5" y="-63.5" font-family="Helvetica,sans-Serif" font-size="10.00">QGraphicsRectItem</text>
</a>
</g>
</g>
<!-- Node2&#45;&gt;Node4 -->
<g id="edge3" class="edge">
<title>Node2&#45;&gt;Node4</title>
<path fill="none" stroke="midnightblue" d="M164.74,-112.08C157.96,-104.3 147.96,-92.8 139.74,-83.37"/>
<polygon fill="midnightblue" stroke="midnightblue" points="142.32,-81 133.12,-75.75 137.04,-85.59 142.32,-81"/>
</g>
<!-- Node5 -->
<g id="node5" class="node">
<title>Node5</title>
<g id="a_node5"><a xlink:title=" ">
<polygon fill="white" stroke="#bfbfbf" points="210.5,-0.5 210.5,-19.5 356.5,-19.5 356.5,-0.5 210.5,-0.5"/>
<text text-anchor="middle" x="283.5" y="-7.5" font-family="Helvetica,sans-Serif" font-size="10.00">QGraphicsSceneMouseEvent</text>
</a>
</g>
</g>
<!-- Node2&#45;&gt;Node5 -->
<g id="edge4" class="edge">
<title>Node2&#45;&gt;Node5</title>
<path fill="none" stroke="midnightblue" d="M197.13,-112.42C215.03,-105.12 238.77,-93.08 254.5,-76 266.65,-62.8 274.35,-43.67 278.73,-29.58"/>
<polygon fill="midnightblue" stroke="midnightblue" points="282.21,-30.14 281.56,-19.56 275.48,-28.24 282.21,-30.14"/>
</g>
<!-- Node6 -->
<g id="node6" class="node">
<title>Node6</title>
<g id="a_node6"><a xlink:href="a00005.html" target="_top" xlink:title=" ">
<polygon fill="white" stroke="black" points="196,-56.5 196,-75.5 245,-75.5 245,-56.5 196,-56.5"/>
<text text-anchor="middle" x="220.5" y="-63.5" font-family="Helvetica,sans-Serif" font-size="10.00">figure.h</text>
</a>
</g>
</g>
<!-- Node2&#45;&gt;Node6 -->
<g id="edge5" class="edge">
<title>Node2&#45;&gt;Node6</title>
<path fill="none" stroke="midnightblue" d="M180.43,-112.08C187.35,-104.3 197.57,-92.8 205.95,-83.37"/>
<polygon fill="midnightblue" stroke="midnightblue" points="208.69,-85.55 212.72,-75.75 203.46,-80.9 208.69,-85.55"/>
</g>
<!-- Node6&#45;&gt;Node3 -->
<g id="edge6" class="edge">
<title>Node6&#45;&gt;Node3</title>
<path fill="none" stroke="midnightblue" d="M195.8,-57.38C166.39,-48.3 116.96,-33.05 82.87,-22.53"/>
<polygon fill="midnightblue" stroke="midnightblue" points="83.84,-19.17 73.25,-19.56 81.78,-25.86 83.84,-19.17"/>
</g>
<!-- Node6&#45;&gt;Node5 -->
<g id="edge8" class="edge">
<title>Node6&#45;&gt;Node5</title>
<path fill="none" stroke="midnightblue" d="M230.62,-56.32C240.03,-48.26 254.24,-36.08 265.57,-26.37"/>
<polygon fill="midnightblue" stroke="midnightblue" points="267.88,-29 273.19,-19.83 263.32,-23.68 267.88,-29"/>
</g>
<!-- Node7 -->
<g id="node7" class="node">
<title>Node7</title>
<g id="a_node7"><a xlink:title=" ">
<polygon fill="white" stroke="#bfbfbf" points="109,-0.5 109,-19.5 192,-19.5 192,-0.5 109,-0.5"/>
<text text-anchor="middle" x="150.5" y="-7.5" font-family="Helvetica,sans-Serif" font-size="10.00">QGraphicsItem</text>
</a>
</g>
</g>
<!-- Node6&#45;&gt;Node7 -->
<g id="edge7" class="edge">
<title>Node6&#45;&gt;Node7</title>
<path fill="none" stroke="midnightblue" d="M209.25,-56.32C198.7,-48.18 182.7,-35.84 170.06,-26.09"/>
<polygon fill="midnightblue" stroke="midnightblue" points="172.01,-23.17 161.95,-19.83 167.73,-28.71 172.01,-23.17"/>
</g>
</g>
</svg>
