<?xml version="1.0" encoding="UTF-8" standalone="no"?>
<!DOCTYPE svg PUBLIC "-//W3C//DTD SVG 1.1//EN"
 "http://www.w3.org/Graphics/SVG/1.1/DTD/svg11.dtd">
<!-- Generated by graphviz version 3.0.0 (20220226.1711)
 -->
<!-- Title: LAB2/formainwindow.h Pages: 1 -->
<svg width="1078pt" height="252pt"
 viewBox="0.00 0.00 1077.50 252.00" xmlns="http://www.w3.org/2000/svg" xmlns:xlink="http://www.w3.org/1999/xlink">
<g id="graph0" class="graph" transform="scale(1 1) rotate(0) translate(4 248)">
<title>LAB2/formainwindow.h</title>
<polygon fill="white" stroke="transparent" points="-4,4 -4,-248 1073.5,-248 1073.5,4 -4,4"/>
<!-- Node1 -->
<g id="node1" class="node">
<title>Node1</title>
<g id="a_node1"><a xlink:title=" ">
<polygon fill="#bfbfbf" stroke="black" points="469,-224.5 469,-243.5 585,-243.5 585,-224.5 469,-224.5"/>
<text text-anchor="middle" x="527" y="-231.5" font-family="Helvetica,sans-Serif" font-size="10.00">LAB2/formainwindow.h</text>
</a>
</g>
</g>
<!-- Node2 -->
<g id="node2" class="node">
<title>Node2</title>
<g id="a_node2"><a xlink:title=" ">
<polygon fill="white" stroke="#bfbfbf" points="0,-168.5 0,-187.5 80,-187.5 80,-168.5 0,-168.5"/>
<text text-anchor="middle" x="40" y="-175.5" font-family="Helvetica,sans-Serif" font-size="10.00">QMainWindow</text>
</a>
</g>
</g>
<!-- Node1&#45;&gt;Node2 -->
<g id="edge1" class="edge">
<title>Node1&#45;&gt;Node2</title>
<path fill="none" stroke="midnightblue" d="M468.72,-228.49C386.6,-221.81 231.92,-208.03 90.25,-188.07"/>
<polygon fill="midnightblue" stroke="midnightblue" points="90.46,-184.57 80.07,-186.63 89.48,-191.5 90.46,-184.57"/>
</g>
<!-- Node3 -->
<g id="node3" class="node">
<title>Node3</title>
<g id="a_node3"><a xlink:title=" ">
<polygon fill="white" stroke="#bfbfbf" points="98.5,-168.5 98.5,-187.5 179.5,-187.5 179.5,-168.5 98.5,-168.5"/>
<text text-anchor="middle" x="139" y="-175.5" font-family="Helvetica,sans-Serif" font-size="10.00">QMessageBox</text>
</a>
</g>
</g>
<!-- Node1&#45;&gt;Node3 -->
<g id="edge2" class="edge">
<title>Node1&#45;&gt;Node3</title>
<path fill="none" stroke="midnightblue" d="M468.99,-226.19C403.5,-218.3 293.51,-204.45 189.65,-188.2"/>
<polygon fill="midnightblue" stroke="midnightblue" points="190.04,-184.72 179.62,-186.62 188.95,-191.63 190.04,-184.72"/>
</g>
<!-- Node4 -->
<g id="node4" class="node">
<title>Node4</title>
<g id="a_node4"><a xlink:title=" ">
<polygon fill="white" stroke="#bfbfbf" points="197.5,-168.5 197.5,-187.5 252.5,-187.5 252.5,-168.5 197.5,-168.5"/>
<text text-anchor="middle" x="225" y="-175.5" font-family="Helvetica,sans-Serif" font-size="10.00">QWidget</text>
</a>
</g>
</g>
<!-- Node1&#45;&gt;Node4 -->
<g id="edge3" class="edge">
<title>Node1&#45;&gt;Node4</title>
<path fill="none" stroke="midnightblue" d="M474.1,-224.48C421.49,-215.85 338.51,-201.84 267,-188 265.54,-187.72 264.04,-187.42 262.54,-187.12"/>
<polygon fill="midnightblue" stroke="midnightblue" points="263.03,-183.65 252.53,-185.06 261.62,-190.51 263.03,-183.65"/>
</g>
<!-- Node5 -->
<g id="node5" class="node">
<title>Node5</title>
<g id="a_node5"><a xlink:title=" ">
<polygon fill="white" stroke="#bfbfbf" points="829.5,-0.5 829.5,-19.5 878.5,-19.5 878.5,-0.5 829.5,-0.5"/>
<text text-anchor="middle" x="854" y="-7.5" font-family="Helvetica,sans-Serif" font-size="10.00">QTimer</text>
</a>
</g>
</g>
<!-- Node1&#45;&gt;Node5 -->
<g id="edge4" class="edge">
<title>Node1&#45;&gt;Node5</title>
<path fill="none" stroke="midnightblue" d="M559.98,-224.47C644.34,-201.87 864.01,-137.98 902,-76 913.15,-57.81 894.11,-38.29 876.81,-25.44"/>
<polygon fill="midnightblue" stroke="midnightblue" points="878.8,-22.56 868.6,-19.7 874.79,-28.3 878.8,-22.56"/>
</g>
<!-- Node6 -->
<g id="node6" class="node">
<title>Node6</title>
<g id="a_node6"><a xlink:title=" ">
<polygon fill="white" stroke="#bfbfbf" points="804,-168.5 804,-187.5 884,-187.5 884,-168.5 804,-168.5"/>
<text text-anchor="middle" x="844" y="-175.5" font-family="Helvetica,sans-Serif" font-size="10.00">QResizeEvent</text>
</a>
</g>
</g>
<!-- Node1&#45;&gt;Node6 -->
<g id="edge5" class="edge">
<title>Node1&#45;&gt;Node6</title>
<path fill="none" stroke="midnightblue" d="M577.23,-224.44C636.48,-214.35 734.39,-197.67 793.67,-187.57"/>
<polygon fill="midnightblue" stroke="midnightblue" points="794.29,-191.02 803.56,-185.89 793.12,-184.12 794.29,-191.02"/>
</g>
<!-- Node7 -->
<g id="node7" class="node">
<title>Node7</title>
<g id="a_node7"><a xlink:title=" ">
<polygon fill="white" stroke="#bfbfbf" points="902.5,-168.5 902.5,-187.5 977.5,-187.5 977.5,-168.5 902.5,-168.5"/>
<text text-anchor="middle" x="940" y="-175.5" font-family="Helvetica,sans-Serif" font-size="10.00">QColorDialog</text>
</a>
</g>
</g>
<!-- Node1&#45;&gt;Node7 -->
<g id="edge6" class="edge">
<title>Node1&#45;&gt;Node7</title>
<path fill="none" stroke="midnightblue" d="M585.17,-227.06C655.46,-219.62 777.53,-205.82 892.31,-188.01"/>
<polygon fill="midnightblue" stroke="midnightblue" points="892.99,-191.45 902.33,-186.44 891.91,-184.53 892.99,-191.45"/>
</g>
<!-- Node8 -->
<g id="node8" class="node">
<title>Node8</title>
<g id="a_node8"><a xlink:title=" ">
<polygon fill="white" stroke="#bfbfbf" points="996,-168.5 996,-187.5 1064,-187.5 1064,-168.5 996,-168.5"/>
<text text-anchor="middle" x="1030" y="-175.5" font-family="Helvetica,sans-Serif" font-size="10.00">QFileDialog</text>
</a>
</g>
</g>
<!-- Node1&#45;&gt;Node8 -->
<g id="edge7" class="edge">
<title>Node1&#45;&gt;Node8</title>
<path fill="none" stroke="midnightblue" d="M585.21,-229.24C672.58,-223.16 842.7,-209.62 986,-188 986.1,-187.98 986.2,-187.97 986.3,-187.95"/>
<polygon fill="midnightblue" stroke="midnightblue" points="986.67,-191.44 995.95,-186.33 985.51,-184.54 986.67,-191.44"/>
</g>
<!-- Node9 -->
<g id="node9" class="node">
<title>Node9</title>
<g id="a_node9"><a xlink:title=" ">
<polygon fill="white" stroke="#bfbfbf" points="154,-56.5 154,-75.5 258,-75.5 258,-56.5 154,-56.5"/>
<text text-anchor="middle" x="206" y="-63.5" font-family="Helvetica,sans-Serif" font-size="10.00">QGraphicsRectItem</text>
</a>
</g>
</g>
<!-- Node1&#45;&gt;Node9 -->
<g id="edge8" class="edge">
<title>Node1&#45;&gt;Node9</title>
<path fill="none" stroke="midnightblue" d="M468.85,-232.52C420.4,-229.66 351.28,-219.65 300,-188 258.65,-162.48 228.45,-111.77 214.54,-84.82"/>
<polygon fill="midnightblue" stroke="midnightblue" points="217.62,-83.14 210.02,-75.75 211.35,-86.26 217.62,-83.14"/>
</g>
<!-- Node10 -->
<g id="node10" class="node">
<title>Node10</title>
<g id="a_node10"><a xlink:href="a00029.html" target="_top" xlink:title=" ">
<polygon fill="white" stroke="black" points="645,-112.5 645,-131.5 717,-131.5 717,-112.5 645,-112.5"/>
<text text-anchor="middle" x="681" y="-119.5" font-family="Helvetica,sans-Serif" font-size="10.00">mainscene.h</text>
</a>
</g>
</g>
<!-- Node1&#45;&gt;Node10 -->
<g id="edge9" class="edge">
<title>Node1&#45;&gt;Node10</title>
<path fill="none" stroke="midnightblue" d="M585.1,-226.1C611.77,-220.1 641.86,-208.91 662,-188 673.84,-175.71 678.36,-156.45 680.06,-142.08"/>
<polygon fill="midnightblue" stroke="midnightblue" points="683.57,-142.09 680.9,-131.84 676.59,-141.52 683.57,-142.09"/>
</g>
<!-- Node23 -->
<g id="node23" class="node">
<title>Node23</title>
<g id="a_node23"><a xlink:href="a00056.html" target="_top" xlink:title=" ">
<polygon fill="white" stroke="black" points="309.5,-168.5 309.5,-187.5 374.5,-187.5 374.5,-168.5 309.5,-168.5"/>
<text text-anchor="middle" x="342" y="-175.5" font-family="Helvetica,sans-Serif" font-size="10.00">rectangle.h</text>
</a>
</g>
</g>
<!-- Node1&#45;&gt;Node23 -->
<g id="edge31" class="edge">
<title>Node1&#45;&gt;Node23</title>
<path fill="none" stroke="midnightblue" d="M497.69,-224.44C466.16,-215.24 415.87,-200.56 381.01,-190.39"/>
<polygon fill="midnightblue" stroke="midnightblue" points="381.76,-186.96 371.18,-187.52 379.8,-193.68 381.76,-186.96"/>
</g>
<!-- Node25 -->
<g id="node25" class="node">
<title>Node25</title>
<g id="a_node25"><a xlink:href="a00050.html" target="_top" xlink:title=" ">
<polygon fill="white" stroke="black" points="392.5,-168.5 392.5,-187.5 445.5,-187.5 445.5,-168.5 392.5,-168.5"/>
<text text-anchor="middle" x="419" y="-175.5" font-family="Helvetica,sans-Serif" font-size="10.00">ellipse.h</text>
</a>
</g>
</g>
<!-- Node1&#45;&gt;Node25 -->
<g id="edge37" class="edge">
<title>Node1&#45;&gt;Node25</title>
<path fill="none" stroke="midnightblue" d="M509.65,-224.32C492.33,-215.66 465.48,-202.24 445.5,-192.25"/>
<polygon fill="midnightblue" stroke="midnightblue" points="446.82,-189 436.31,-187.65 443.69,-195.26 446.82,-189"/>
</g>
<!-- Node26 -->
<g id="node26" class="node">
<title>Node26</title>
<g id="a_node26"><a xlink:href="a00008.html" target="_top" xlink:title=" ">
<polygon fill="white" stroke="black" points="463.5,-168.5 463.5,-187.5 522.5,-187.5 522.5,-168.5 463.5,-168.5"/>
<text text-anchor="middle" x="493" y="-175.5" font-family="Helvetica,sans-Serif" font-size="10.00">polygon.h</text>
</a>
</g>
</g>
<!-- Node1&#45;&gt;Node26 -->
<g id="edge39" class="edge">
<title>Node1&#45;&gt;Node26</title>
<path fill="none" stroke="midnightblue" d="M521.39,-224.08C516.63,-216.53 509.68,-205.49 503.85,-196.23"/>
<polygon fill="midnightblue" stroke="midnightblue" points="506.8,-194.35 498.51,-187.75 500.88,-198.08 506.8,-194.35"/>
</g>
<!-- Node27 -->
<g id="node27" class="node">
<title>Node27</title>
<g id="a_node27"><a xlink:href="a00047.html" target="_top" xlink:title=" ">
<polygon fill="white" stroke="black" points="541,-168.5 541,-187.5 581,-187.5 581,-168.5 541,-168.5"/>
<text text-anchor="middle" x="561" y="-175.5" font-family="Helvetica,sans-Serif" font-size="10.00">line.h</text>
</a>
</g>
</g>
<!-- Node1&#45;&gt;Node27 -->
<g id="edge41" class="edge">
<title>Node1&#45;&gt;Node27</title>
<path fill="none" stroke="midnightblue" d="M532.61,-224.08C537.37,-216.53 544.32,-205.49 550.15,-196.23"/>
<polygon fill="midnightblue" stroke="midnightblue" points="553.12,-198.08 555.49,-187.75 547.2,-194.35 553.12,-198.08"/>
</g>
<!-- Node28 -->
<g id="node28" class="node">
<title>Node28</title>
<g id="a_node28"><a xlink:href="a00035.html" target="_top" xlink:title=" ">
<polygon fill="white" stroke="black" points="599,-168.5 599,-187.5 653,-187.5 653,-168.5 599,-168.5"/>
<text text-anchor="middle" x="626" y="-175.5" font-family="Helvetica,sans-Serif" font-size="10.00">broken.h</text>
</a>
</g>
</g>
<!-- Node1&#45;&gt;Node28 -->
<g id="edge43" class="edge">
<title>Node1&#45;&gt;Node28</title>
<path fill="none" stroke="midnightblue" d="M542.91,-224.32C558.64,-215.74 582.94,-202.49 601.21,-192.52"/>
<polygon fill="midnightblue" stroke="midnightblue" points="603.03,-195.52 610.13,-187.65 599.68,-189.37 603.03,-195.52"/>
</g>
<!-- Node10&#45;&gt;Node5 -->
<g id="edge14" class="edge">
<title>Node10&#45;&gt;Node5</title>
<path fill="none" stroke="midnightblue" d="M694.58,-112.37C724.26,-93.49 795.2,-48.38 831.61,-25.24"/>
<polygon fill="midnightblue" stroke="midnightblue" points="833.93,-27.91 840.49,-19.59 830.17,-22 833.93,-27.91"/>
</g>
<!-- Node11 -->
<g id="node11" class="node">
<title>Node11</title>
<g id="a_node11"><a xlink:title=" ">
<polygon fill="white" stroke="#bfbfbf" points="419.5,-0.5 419.5,-19.5 510.5,-19.5 510.5,-0.5 419.5,-0.5"/>
<text text-anchor="middle" x="465" y="-7.5" font-family="Helvetica,sans-Serif" font-size="10.00">QGraphicsScene</text>
</a>
</g>
</g>
<!-- Node10&#45;&gt;Node11 -->
<g id="edge10" class="edge">
<title>Node10&#45;&gt;Node11</title>
<path fill="none" stroke="midnightblue" d="M644.71,-116.82C595.16,-110.42 509.87,-96.72 487,-76 473.91,-64.14 468.61,-44.23 466.46,-29.56"/>
<polygon fill="midnightblue" stroke="midnightblue" points="469.93,-29.14 465.35,-19.58 462.97,-29.91 469.93,-29.14"/>
</g>
<!-- Node12 -->
<g id="node12" class="node">
<title>Node12</title>
<g id="a_node12"><a xlink:title=" ">
<polygon fill="white" stroke="#bfbfbf" points="253,-0.5 253,-19.5 399,-19.5 399,-0.5 253,-0.5"/>
<text text-anchor="middle" x="326" y="-7.5" font-family="Helvetica,sans-Serif" font-size="10.00">QGraphicsSceneMouseEvent</text>
</a>
</g>
</g>
<!-- Node10&#45;&gt;Node12 -->
<g id="edge11" class="edge">
<title>Node10&#45;&gt;Node12</title>
<path fill="none" stroke="midnightblue" d="M644.85,-118.76C575.28,-113.93 425.67,-100.91 381,-76 361.3,-65.01 345.55,-44.03 336.03,-28.88"/>
<polygon fill="midnightblue" stroke="midnightblue" points="338.82,-26.72 330.7,-19.92 332.81,-30.3 338.82,-26.72"/>
</g>
<!-- Node13 -->
<g id="node13" class="node">
<title>Node13</title>
<g id="a_node13"><a xlink:title=" ">
<polygon fill="white" stroke="#bfbfbf" points="728.5,-0.5 728.5,-19.5 811.5,-19.5 811.5,-0.5 728.5,-0.5"/>
<text text-anchor="middle" x="770" y="-7.5" font-family="Helvetica,sans-Serif" font-size="10.00">QGraphicsItem</text>
</a>
</g>
</g>
<!-- Node10&#45;&gt;Node13 -->
<g id="edge12" class="edge">
<title>Node10&#45;&gt;Node13</title>
<path fill="none" stroke="midnightblue" d="M691.67,-112.38C701.92,-103.8 717.51,-89.92 729,-76 741.3,-61.1 752.81,-42.25 760.48,-28.69"/>
<polygon fill="midnightblue" stroke="midnightblue" points="763.57,-30.33 765.35,-19.89 757.45,-26.95 763.57,-30.33"/>
</g>
<!-- Node14 -->
<g id="node14" class="node">
<title>Node14</title>
<g id="a_node14"><a xlink:title=" ">
<polygon fill="white" stroke="#bfbfbf" points="838.5,-56.5 838.5,-75.5 893.5,-75.5 893.5,-56.5 838.5,-56.5"/>
<text text-anchor="middle" x="866" y="-63.5" font-family="Helvetica,sans-Serif" font-size="10.00">QPainter</text>
</a>
</g>
</g>
<!-- Node10&#45;&gt;Node14 -->
<g id="edge13" class="edge">
<title>Node10&#45;&gt;Node14</title>
<path fill="none" stroke="midnightblue" d="M710.31,-112.44C742.31,-103.11 793.61,-88.13 828.51,-77.94"/>
<polygon fill="midnightblue" stroke="midnightblue" points="829.72,-81.24 838.33,-75.08 827.75,-74.52 829.72,-81.24"/>
</g>
<!-- Node15 -->
<g id="node15" class="node">
<title>Node15</title>
<g id="a_node15"><a xlink:title=" ">
<polygon fill="white" stroke="#bfbfbf" points="655.5,-0.5 655.5,-19.5 708.5,-19.5 708.5,-0.5 655.5,-0.5"/>
<text text-anchor="middle" x="682" y="-7.5" font-family="Helvetica,sans-Serif" font-size="10.00">QDebug</text>
</a>
</g>
</g>
<!-- Node10&#45;&gt;Node15 -->
<g id="edge15" class="edge">
<title>Node10&#45;&gt;Node15</title>
<path fill="none" stroke="midnightblue" d="M690.02,-112.34C698.07,-103.93 709.3,-90.36 714,-76 719.65,-58.74 708.75,-40.28 698.17,-27.45"/>
<polygon fill="midnightblue" stroke="midnightblue" points="700.71,-25.04 691.44,-19.91 695.49,-29.7 700.71,-25.04"/>
</g>
<!-- Node16 -->
<g id="node16" class="node">
<title>Node16</title>
<g id="a_node16"><a xlink:title=" ">
<polygon fill="white" stroke="#bfbfbf" points="496.5,-56.5 496.5,-75.5 549.5,-75.5 549.5,-56.5 496.5,-56.5"/>
<text text-anchor="middle" x="523" y="-63.5" font-family="Helvetica,sans-Serif" font-size="10.00">QCursor</text>
</a>
</g>
</g>
<!-- Node10&#45;&gt;Node16 -->
<g id="edge16" class="edge">
<title>Node10&#45;&gt;Node16</title>
<path fill="none" stroke="midnightblue" d="M655.96,-112.44C629.38,-103.36 587.19,-88.94 557.48,-78.78"/>
<polygon fill="midnightblue" stroke="midnightblue" points="558.51,-75.44 547.92,-75.52 556.25,-82.06 558.51,-75.44"/>
</g>
<!-- Node17 -->
<g id="node17" class="node">
<title>Node17</title>
<g id="a_node17"><a xlink:href="a00005.html" target="_top" xlink:title=" ">
<polygon fill="white" stroke="black" points="390.5,-56.5 390.5,-75.5 439.5,-75.5 439.5,-56.5 390.5,-56.5"/>
<text text-anchor="middle" x="415" y="-63.5" font-family="Helvetica,sans-Serif" font-size="10.00">figure.h</text>
</a>
</g>
</g>
<!-- Node10&#45;&gt;Node17 -->
<g id="edge17" class="edge">
<title>Node10&#45;&gt;Node17</title>
<path fill="none" stroke="midnightblue" d="M644.76,-114.18C599.89,-105.64 521.17,-90.41 454,-76 452.56,-75.69 451.08,-75.37 449.6,-75.04"/>
<polygon fill="midnightblue" stroke="midnightblue" points="450.26,-71.6 439.73,-72.83 448.72,-78.43 450.26,-71.6"/>
</g>
<!-- Node18 -->
<g id="node18" class="node">
<title>Node18</title>
<g id="a_node18"><a xlink:href="a00059.html" target="_top" xlink:title=" ">
<polygon fill="white" stroke="black" points="656.5,-56.5 656.5,-75.5 705.5,-75.5 705.5,-56.5 656.5,-56.5"/>
<text text-anchor="middle" x="681" y="-63.5" font-family="Helvetica,sans-Serif" font-size="10.00">brush.h</text>
</a>
</g>
</g>
<!-- Node10&#45;&gt;Node18 -->
<g id="edge21" class="edge">
<title>Node10&#45;&gt;Node18</title>
<path fill="none" stroke="midnightblue" d="M681,-112.08C681,-105.01 681,-94.86 681,-85.99"/>
<polygon fill="midnightblue" stroke="midnightblue" points="684.5,-85.75 681,-75.75 677.5,-85.75 684.5,-85.75"/>
</g>
<!-- Node19 -->
<g id="node19" class="node">
<title>Node19</title>
<g id="a_node19"><a xlink:href="a00014.html" target="_top" xlink:title=" ">
<polygon fill="white" stroke="black" points="950,-56.5 950,-75.5 1006,-75.5 1006,-56.5 950,-56.5"/>
<text text-anchor="middle" x="978" y="-63.5" font-family="Helvetica,sans-Serif" font-size="10.00">floodfill.h</text>
</a>
</g>
</g>
<!-- Node10&#45;&gt;Node19 -->
<g id="edge26" class="edge">
<title>Node10&#45;&gt;Node19</title>
<path fill="none" stroke="midnightblue" d="M717.12,-114.43C773.44,-104.19 881.7,-84.51 939.47,-74.01"/>
<polygon fill="midnightblue" stroke="midnightblue" points="940.43,-77.39 949.64,-72.16 939.18,-70.5 940.43,-77.39"/>
</g>
<!-- Node22 -->
<g id="node22" class="node">
<title>Node22</title>
<g id="a_node22"><a xlink:href="a00038.html" target="_top" xlink:title=" ">
<polygon fill="white" stroke="black" points="568,-56.5 568,-75.5 638,-75.5 638,-56.5 568,-56.5"/>
<text text-anchor="middle" x="603" y="-63.5" font-family="Helvetica,sans-Serif" font-size="10.00">toolsenum.h</text>
</a>
</g>
</g>
<!-- Node10&#45;&gt;Node22 -->
<g id="edge30" class="edge">
<title>Node10&#45;&gt;Node22</title>
<path fill="none" stroke="midnightblue" d="M668.47,-112.32C656.41,-103.98 637.97,-91.21 623.73,-81.35"/>
<polygon fill="midnightblue" stroke="midnightblue" points="625.72,-78.47 615.5,-75.65 621.73,-84.22 625.72,-78.47"/>
</g>
<!-- Node17&#45;&gt;Node11 -->
<g id="edge18" class="edge">
<title>Node17&#45;&gt;Node11</title>
<path fill="none" stroke="midnightblue" d="M423.26,-56.08C430.46,-48.3 441.11,-36.8 449.85,-27.37"/>
<polygon fill="midnightblue" stroke="midnightblue" points="452.67,-29.47 456.9,-19.75 447.53,-24.71 452.67,-29.47"/>
</g>
<!-- Node17&#45;&gt;Node12 -->
<g id="edge20" class="edge">
<title>Node17&#45;&gt;Node12</title>
<path fill="none" stroke="midnightblue" d="M400.7,-56.32C386.82,-47.9 365.51,-34.97 349.2,-25.07"/>
<polygon fill="midnightblue" stroke="midnightblue" points="350.63,-21.85 340.26,-19.65 347,-27.83 350.63,-21.85"/>
</g>
<!-- Node17&#45;&gt;Node13 -->
<g id="edge19" class="edge">
<title>Node17&#45;&gt;Node13</title>
<path fill="none" stroke="midnightblue" d="M439.69,-61.49C491.25,-54.13 614.13,-36.4 717,-20 717.46,-19.93 717.92,-19.85 718.39,-19.78"/>
<polygon fill="midnightblue" stroke="midnightblue" points="719.04,-23.22 728.35,-18.15 717.92,-16.31 719.04,-23.22"/>
</g>
<!-- Node18&#45;&gt;Node5 -->
<g id="edge24" class="edge">
<title>Node18&#45;&gt;Node5</title>
<path fill="none" stroke="midnightblue" d="M705.79,-57.26C735.59,-47.96 785.79,-32.29 819.4,-21.8"/>
<polygon fill="midnightblue" stroke="midnightblue" points="820.76,-25.04 829.26,-18.72 818.67,-18.36 820.76,-25.04"/>
</g>
<!-- Node18&#45;&gt;Node11 -->
<g id="edge22" class="edge">
<title>Node18&#45;&gt;Node11</title>
<path fill="none" stroke="midnightblue" d="M656.5,-58.46C653.31,-57.63 650.08,-56.79 647,-56 600.45,-44.09 547.07,-30.95 510.21,-21.96"/>
<polygon fill="midnightblue" stroke="midnightblue" points="510.82,-18.51 500.27,-19.54 509.16,-25.31 510.82,-18.51"/>
</g>
<!-- Node18&#45;&gt;Node12 -->
<g id="edge23" class="edge">
<title>Node18&#45;&gt;Node12</title>
<path fill="none" stroke="midnightblue" d="M656.2,-58.07C653.11,-57.31 649.99,-56.6 647,-56 601.9,-46.9 483.46,-31.07 403.77,-20.82"/>
<polygon fill="midnightblue" stroke="midnightblue" points="404.13,-17.33 393.76,-19.53 403.24,-24.28 404.13,-17.33"/>
</g>
<!-- Node18&#45;&gt;Node15 -->
<g id="edge25" class="edge">
<title>Node18&#45;&gt;Node15</title>
<path fill="none" stroke="midnightblue" d="M681.17,-56.08C681.3,-49.01 681.48,-38.86 681.65,-29.99"/>
<polygon fill="midnightblue" stroke="midnightblue" points="685.15,-29.81 681.84,-19.75 678.15,-29.68 685.15,-29.81"/>
</g>
<!-- Node19&#45;&gt;Node13 -->
<g id="edge28" class="edge">
<title>Node19&#45;&gt;Node13</title>
<path fill="none" stroke="midnightblue" d="M949.95,-57.72C914.71,-48.57 853.89,-32.78 812.82,-22.12"/>
<polygon fill="midnightblue" stroke="midnightblue" points="813.65,-18.72 803.09,-19.59 811.89,-25.49 813.65,-18.72"/>
</g>
<!-- Node20 -->
<g id="node20" class="node">
<title>Node20</title>
<g id="a_node20"><a xlink:title=" ">
<polygon fill="white" stroke="#bfbfbf" points="1022.5,-0.5 1022.5,-19.5 1069.5,-19.5 1069.5,-0.5 1022.5,-0.5"/>
<text text-anchor="middle" x="1046" y="-7.5" font-family="Helvetica,sans-Serif" font-size="10.00">QColor</text>
</a>
</g>
</g>
<!-- Node19&#45;&gt;Node20 -->
<g id="edge27" class="edge">
<title>Node19&#45;&gt;Node20</title>
<path fill="none" stroke="midnightblue" d="M988.93,-56.32C999.17,-48.18 1014.72,-35.84 1027,-26.09"/>
<polygon fill="midnightblue" stroke="midnightblue" points="1029.22,-28.79 1034.88,-19.83 1024.87,-23.31 1029.22,-28.79"/>
</g>
<!-- Node21 -->
<g id="node21" class="node">
<title>Node21</title>
<g id="a_node21"><a xlink:title=" ">
<polygon fill="white" stroke="#bfbfbf" points="915.5,-0.5 915.5,-19.5 1004.5,-19.5 1004.5,-0.5 915.5,-0.5"/>
<text text-anchor="middle" x="960" y="-7.5" font-family="Helvetica,sans-Serif" font-size="10.00">QGraphicsEffect</text>
</a>
</g>
</g>
<!-- Node19&#45;&gt;Node21 -->
<g id="edge29" class="edge">
<title>Node19&#45;&gt;Node21</title>
<path fill="none" stroke="midnightblue" d="M975.03,-56.08C972.62,-48.85 969.14,-38.41 966.13,-29.4"/>
<polygon fill="midnightblue" stroke="midnightblue" points="969.4,-28.13 962.92,-19.75 962.76,-30.34 969.4,-28.13"/>
</g>
<!-- Node24 -->
<g id="node24" class="node">
<title>Node24</title>
<g id="a_node24"><a xlink:href="a00053.html" target="_top" xlink:title=" ">
<polygon fill="white" stroke="black" points="374.5,-112.5 374.5,-131.5 455.5,-131.5 455.5,-112.5 374.5,-112.5"/>
<text text-anchor="middle" x="415" y="-119.5" font-family="Helvetica,sans-Serif" font-size="10.00">forfigureheirs.h</text>
</a>
</g>
</g>
<!-- Node23&#45;&gt;Node24 -->
<g id="edge32" class="edge">
<title>Node23&#45;&gt;Node24</title>
<path fill="none" stroke="midnightblue" d="M353.73,-168.32C364.84,-160.11 381.74,-147.6 394.98,-137.81"/>
<polygon fill="midnightblue" stroke="midnightblue" points="397.1,-140.59 403.06,-131.83 392.94,-134.97 397.1,-140.59"/>
</g>
<!-- Node24&#45;&gt;Node9 -->
<g id="edge34" class="edge">
<title>Node24&#45;&gt;Node9</title>
<path fill="none" stroke="midnightblue" d="M381.88,-112.44C345.88,-103.14 288.23,-88.25 248.81,-78.06"/>
<polygon fill="midnightblue" stroke="midnightblue" points="249.52,-74.63 238.96,-75.52 247.77,-81.41 249.52,-74.63"/>
</g>
<!-- Node24&#45;&gt;Node11 -->
<g id="edge33" class="edge">
<title>Node24&#45;&gt;Node11</title>
<path fill="none" stroke="midnightblue" d="M404.68,-112.42C390.82,-99.81 369.22,-75.67 381,-56 390.15,-40.72 406.46,-30.33 422.29,-23.43"/>
<polygon fill="midnightblue" stroke="midnightblue" points="424.01,-26.51 432.01,-19.56 421.43,-20 424.01,-26.51"/>
</g>
<!-- Node24&#45;&gt;Node12 -->
<g id="edge35" class="edge">
<title>Node24&#45;&gt;Node12</title>
<path fill="none" stroke="midnightblue" d="M374.31,-114.74C351.25,-108.88 324.25,-97.61 310,-76 300.63,-61.79 307.22,-42.57 314.57,-28.71"/>
<polygon fill="midnightblue" stroke="midnightblue" points="317.8,-30.12 319.84,-19.73 311.76,-26.58 317.8,-30.12"/>
</g>
<!-- Node24&#45;&gt;Node17 -->
<g id="edge36" class="edge">
<title>Node24&#45;&gt;Node17</title>
<path fill="none" stroke="midnightblue" d="M415,-112.08C415,-105.01 415,-94.86 415,-85.99"/>
<polygon fill="midnightblue" stroke="midnightblue" points="418.5,-85.75 415,-75.75 411.5,-85.75 418.5,-85.75"/>
</g>
<!-- Node25&#45;&gt;Node24 -->
<g id="edge38" class="edge">
<title>Node25&#45;&gt;Node24</title>
<path fill="none" stroke="midnightblue" d="M418.34,-168.08C417.82,-161.01 417.06,-150.86 416.41,-141.99"/>
<polygon fill="midnightblue" stroke="midnightblue" points="419.88,-141.47 415.65,-131.75 412.9,-141.98 419.88,-141.47"/>
</g>
<!-- Node26&#45;&gt;Node24 -->
<g id="edge40" class="edge">
<title>Node26&#45;&gt;Node24</title>
<path fill="none" stroke="midnightblue" d="M480.47,-168.32C468.41,-159.98 449.97,-147.21 435.73,-137.35"/>
<polygon fill="midnightblue" stroke="midnightblue" points="437.72,-134.47 427.5,-131.65 433.73,-140.22 437.72,-134.47"/>
</g>
<!-- Node27&#45;&gt;Node24 -->
<g id="edge42" class="edge">
<title>Node27&#45;&gt;Node24</title>
<path fill="none" stroke="midnightblue" d="M540.7,-169.49C516.59,-160.57 476.05,-145.58 447.55,-135.04"/>
<polygon fill="midnightblue" stroke="midnightblue" points="448.61,-131.7 438.01,-131.51 446.18,-138.26 448.61,-131.7"/>
</g>
<!-- Node28&#45;&gt;Node24 -->
<g id="edge44" class="edge">
<title>Node28&#45;&gt;Node24</title>
<path fill="none" stroke="midnightblue" d="M598.85,-170.05C563.19,-160.93 500.19,-144.8 458.02,-134.01"/>
<polygon fill="midnightblue" stroke="midnightblue" points="458.86,-130.61 448.3,-131.52 457.12,-137.39 458.86,-130.61"/>
</g>
</g>
</svg>
