<?xml version="1.0" encoding="UTF-8" standalone="no"?>
<!DOCTYPE svg PUBLIC "-//W3C//DTD SVG 1.1//EN"
 "http://www.w3.org/Graphics/SVG/1.1/DTD/svg11.dtd">
<!-- Generated by graphviz version 3.0.0 (20220226.1711)
 -->
<!-- Title: LAB2/brush.h Pages: 1 -->
<svg width="294pt" height="252pt"
 viewBox="0.00 0.00 293.50 252.00" xmlns="http://www.w3.org/2000/svg" xmlns:xlink="http://www.w3.org/1999/xlink">
<g id="graph0" class="graph" transform="scale(1 1) rotate(0) translate(4 248)">
<title>LAB2/brush.h</title>
<polygon fill="white" stroke="transparent" points="-4,4 -4,-248 289.5,-248 289.5,4 -4,4"/>
<!-- Node1 -->
<g id="node1" class="node">
<title>Node1</title>
<g id="a_node1"><a xlink:title=" ">
<polygon fill="#bfbfbf" stroke="black" points="70.5,-224.5 70.5,-243.5 146.5,-243.5 146.5,-224.5 70.5,-224.5"/>
<text text-anchor="middle" x="108.5" y="-231.5" font-family="Helvetica,sans-Serif" font-size="10.00">LAB2/brush.h</text>
</a>
</g>
</g>
<!-- Node2 -->
<g id="node2" class="node">
<title>Node2</title>
<g id="a_node2"><a xlink:href="a00068.html" target="_top" xlink:title=" ">
<polygon fill="white" stroke="black" points="10.5,-168.5 10.5,-187.5 96.5,-187.5 96.5,-168.5 10.5,-168.5"/>
<text text-anchor="middle" x="53.5" y="-175.5" font-family="Helvetica,sans-Serif" font-size="10.00">LAB2/brush.cpp</text>
</a>
</g>
</g>
<!-- Node1&#45;&gt;Node2 -->
<g id="edge1" class="edge">
<title>Node1&#45;&gt;Node2</title>
<path fill="none" stroke="midnightblue" d="M92.21,-217C82.46,-207.43 70.45,-195.64 62.41,-187.75"/>
<polygon fill="midnightblue" stroke="midnightblue" points="89.83,-219.57 99.42,-224.08 94.73,-214.58 89.83,-219.57"/>
</g>
<!-- Node3 -->
<g id="node3" class="node">
<title>Node3</title>
<g id="a_node3"><a xlink:href="a00029.html" target="_top" xlink:title=" ">
<polygon fill="white" stroke="black" points="115,-168.5 115,-187.5 214,-187.5 214,-168.5 115,-168.5"/>
<text text-anchor="middle" x="164.5" y="-175.5" font-family="Helvetica,sans-Serif" font-size="10.00">LAB2/mainscene.h</text>
</a>
</g>
</g>
<!-- Node1&#45;&gt;Node3 -->
<g id="edge2" class="edge">
<title>Node1&#45;&gt;Node3</title>
<path fill="none" stroke="midnightblue" d="M124.83,-217.25C134.76,-207.67 147.09,-195.79 155.34,-187.83"/>
<polygon fill="midnightblue" stroke="midnightblue" points="122.27,-214.86 117.5,-224.32 127.13,-219.9 122.27,-214.86"/>
</g>
<!-- Node4 -->
<g id="node4" class="node">
<title>Node4</title>
<g id="a_node4"><a xlink:href="a00020.html" target="_top" xlink:title=" ">
<polygon fill="white" stroke="black" points="41.5,-112.5 41.5,-131.5 157.5,-131.5 157.5,-112.5 41.5,-112.5"/>
<text text-anchor="middle" x="99.5" y="-119.5" font-family="Helvetica,sans-Serif" font-size="10.00">LAB2/formainwindow.h</text>
</a>
</g>
</g>
<!-- Node3&#45;&gt;Node4 -->
<g id="edge3" class="edge">
<title>Node3&#45;&gt;Node4</title>
<path fill="none" stroke="midnightblue" d="M146.23,-161.82C134.58,-152.15 119.9,-139.95 110.13,-131.83"/>
<polygon fill="midnightblue" stroke="midnightblue" points="144.13,-164.63 154.06,-168.32 148.6,-159.24 144.13,-164.63"/>
</g>
<!-- Node8 -->
<g id="node8" class="node">
<title>Node8</title>
<g id="a_node8"><a xlink:href="a00026.html" target="_top" xlink:title=" ">
<polygon fill="white" stroke="black" points="175.5,-112.5 175.5,-131.5 285.5,-131.5 285.5,-112.5 175.5,-112.5"/>
<text text-anchor="middle" x="230.5" y="-119.5" font-family="Helvetica,sans-Serif" font-size="10.00">LAB2/mainscene.cpp</text>
</a>
</g>
</g>
<!-- Node3&#45;&gt;Node8 -->
<g id="edge7" class="edge">
<title>Node3&#45;&gt;Node8</title>
<path fill="none" stroke="midnightblue" d="M183.05,-161.82C194.88,-152.15 209.79,-139.95 219.7,-131.83"/>
<polygon fill="midnightblue" stroke="midnightblue" points="180.63,-159.28 175.1,-168.32 185.06,-164.7 180.63,-159.28"/>
</g>
<!-- Node5 -->
<g id="node5" class="node">
<title>Node5</title>
<g id="a_node5"><a xlink:href="a00017.html" target="_top" xlink:title=" ">
<polygon fill="white" stroke="black" points="47.5,-56.5 47.5,-75.5 151.5,-75.5 151.5,-56.5 47.5,-56.5"/>
<text text-anchor="middle" x="99.5" y="-63.5" font-family="Helvetica,sans-Serif" font-size="10.00">LAB2/mainwindow.h</text>
</a>
</g>
</g>
<!-- Node4&#45;&gt;Node5 -->
<g id="edge4" class="edge">
<title>Node4&#45;&gt;Node5</title>
<path fill="none" stroke="midnightblue" d="M99.5,-101.8C99.5,-92.91 99.5,-82.78 99.5,-75.75"/>
<polygon fill="midnightblue" stroke="midnightblue" points="96,-102.08 99.5,-112.08 103,-102.08 96,-102.08"/>
</g>
<!-- Node6 -->
<g id="node6" class="node">
<title>Node6</title>
<g id="a_node6"><a xlink:href="a00062.html" target="_top" xlink:title=" ">
<polygon fill="white" stroke="black" points="0,-0.5 0,-19.5 83,-19.5 83,-0.5 0,-0.5"/>
<text text-anchor="middle" x="41.5" y="-7.5" font-family="Helvetica,sans-Serif" font-size="10.00">LAB2/main.cpp</text>
</a>
</g>
</g>
<!-- Node5&#45;&gt;Node6 -->
<g id="edge5" class="edge">
<title>Node5&#45;&gt;Node6</title>
<path fill="none" stroke="midnightblue" d="M82.59,-49.25C72.3,-39.67 59.53,-27.79 50.99,-19.83"/>
<polygon fill="midnightblue" stroke="midnightblue" points="80.48,-52.07 90.18,-56.32 85.25,-46.95 80.48,-52.07"/>
</g>
<!-- Node7 -->
<g id="node7" class="node">
<title>Node7</title>
<g id="a_node7"><a xlink:href="a00032.html" target="_top" xlink:title=" ">
<polygon fill="white" stroke="black" points="101,-0.5 101,-19.5 216,-19.5 216,-0.5 101,-0.5"/>
<text text-anchor="middle" x="158.5" y="-7.5" font-family="Helvetica,sans-Serif" font-size="10.00">LAB2/mainwindow.cpp</text>
</a>
</g>
</g>
<!-- Node5&#45;&gt;Node7 -->
<g id="edge6" class="edge">
<title>Node5&#45;&gt;Node7</title>
<path fill="none" stroke="midnightblue" d="M116.39,-49.54C126.91,-39.91 140.07,-27.87 148.85,-19.83"/>
<polygon fill="midnightblue" stroke="midnightblue" points="113.99,-46.99 108.98,-56.32 118.72,-52.15 113.99,-46.99"/>
</g>
</g>
</svg>
