<?xml version="1.0" encoding="UTF-8" standalone="no"?>
<!DOCTYPE svg PUBLIC "-//W3C//DTD SVG 1.1//EN"
 "http://www.w3.org/Graphics/SVG/1.1/DTD/svg11.dtd">
<!-- Generated by graphviz version 3.0.0 (20220226.1711)
 -->
<!-- Title: LAB2/mainwindow.cpp Pages: 1 -->
<svg width="1243pt" height="364pt"
 viewBox="0.00 0.00 1242.50 364.00" xmlns="http://www.w3.org/2000/svg" xmlns:xlink="http://www.w3.org/1999/xlink">
<g id="graph0" class="graph" transform="scale(1 1) rotate(0) translate(4 360)">
<title>LAB2/mainwindow.cpp</title>
<polygon fill="white" stroke="transparent" points="-4,4 -4,-360 1238.5,-360 1238.5,4 -4,4"/>
<!-- Node1 -->
<g id="node1" class="node">
<title>Node1</title>
<g id="a_node1"><a xlink:title=" ">
<polygon fill="#bfbfbf" stroke="black" points="977.5,-336.5 977.5,-355.5 1092.5,-355.5 1092.5,-336.5 977.5,-336.5"/>
<text text-anchor="middle" x="1035" y="-343.5" font-family="Helvetica,sans-Serif" font-size="10.00">LAB2/mainwindow.cpp</text>
</a>
</g>
</g>
<!-- Node2 -->
<g id="node2" class="node">
<title>Node2</title>
<g id="a_node2"><a xlink:href="a00017.html" target="_top" xlink:title=" ">
<polygon fill="white" stroke="black" points="699.5,-280.5 699.5,-299.5 776.5,-299.5 776.5,-280.5 699.5,-280.5"/>
<text text-anchor="middle" x="738" y="-287.5" font-family="Helvetica,sans-Serif" font-size="10.00">mainwindow.h</text>
</a>
</g>
</g>
<!-- Node1&#45;&gt;Node2 -->
<g id="edge1" class="edge">
<title>Node1&#45;&gt;Node2</title>
<path fill="none" stroke="midnightblue" d="M987.94,-336.44C932.97,-326.45 842.47,-309.99 786.77,-299.87"/>
<polygon fill="midnightblue" stroke="midnightblue" points="787.26,-296.4 776.8,-298.05 786.01,-303.29 787.26,-296.4"/>
</g>
<!-- Node4 -->
<g id="node4" class="node">
<title>Node4</title>
<g id="a_node4"><a xlink:title=" ">
<polygon fill="white" stroke="#bfbfbf" points="0,-168.5 0,-187.5 80,-187.5 80,-168.5 0,-168.5"/>
<text text-anchor="middle" x="40" y="-175.5" font-family="Helvetica,sans-Serif" font-size="10.00">QMainWindow</text>
</a>
</g>
</g>
<!-- Node1&#45;&gt;Node4 -->
<g id="edge49" class="edge">
<title>Node1&#45;&gt;Node4</title>
<path fill="none" stroke="midnightblue" d="M977.35,-338.42C908.9,-330.38 791.39,-315.88 691,-300 466.06,-264.41 199.4,-211.44 90.31,-189.3"/>
<polygon fill="midnightblue" stroke="midnightblue" points="90.74,-185.82 80.25,-187.26 89.35,-192.68 90.74,-185.82"/>
</g>
<!-- Node24 -->
<g id="node24" class="node">
<title>Node24</title>
<g id="a_node24"><a xlink:href="a00038.html" target="_top" xlink:title=" ">
<polygon fill="white" stroke="black" points="851,-56.5 851,-75.5 921,-75.5 921,-56.5 851,-56.5"/>
<text text-anchor="middle" x="886" y="-63.5" font-family="Helvetica,sans-Serif" font-size="10.00">toolsenum.h</text>
</a>
</g>
</g>
<!-- Node1&#45;&gt;Node24 -->
<g id="edge48" class="edge">
<title>Node1&#45;&gt;Node24</title>
<path fill="none" stroke="midnightblue" d="M1035,-336.44C1035,-317.94 1035,-272.81 1035,-235 1035,-235 1035,-235 1035,-177 1035,-123.94 973.09,-93.58 929.08,-78.7"/>
<polygon fill="midnightblue" stroke="midnightblue" points="930.03,-75.33 919.44,-75.59 927.88,-81.99 930.03,-75.33"/>
</g>
<!-- Node31 -->
<g id="node31" class="node">
<title>Node31</title>
<g id="a_node31"><a xlink:title=" ">
<polygon fill="white" stroke="#bfbfbf" points="1063,-280.5 1063,-299.5 1153,-299.5 1153,-280.5 1063,-280.5"/>
<text text-anchor="middle" x="1108" y="-287.5" font-family="Helvetica,sans-Serif" font-size="10.00">ui_mainwindow.h</text>
</a>
</g>
</g>
<!-- Node1&#45;&gt;Node31 -->
<g id="edge47" class="edge">
<title>Node1&#45;&gt;Node31</title>
<path fill="none" stroke="midnightblue" d="M1046.73,-336.32C1057.84,-328.11 1074.74,-315.6 1087.98,-305.81"/>
<polygon fill="midnightblue" stroke="midnightblue" points="1090.1,-308.59 1096.06,-299.83 1085.94,-302.97 1090.1,-308.59"/>
</g>
<!-- Node32 -->
<g id="node32" class="node">
<title>Node32</title>
<g id="a_node32"><a xlink:title=" ">
<polygon fill="white" stroke="#bfbfbf" points="1171.5,-280.5 1171.5,-299.5 1234.5,-299.5 1234.5,-280.5 1171.5,-280.5"/>
<text text-anchor="middle" x="1203" y="-287.5" font-family="Helvetica,sans-Serif" font-size="10.00">QtWidgets</text>
</a>
</g>
</g>
<!-- Node1&#45;&gt;Node32 -->
<g id="edge50" class="edge">
<title>Node1&#45;&gt;Node32</title>
<path fill="none" stroke="midnightblue" d="M1061.62,-336.44C1090.01,-327.32 1135.14,-312.81 1166.75,-302.65"/>
<polygon fill="midnightblue" stroke="midnightblue" points="1168.06,-305.91 1176.5,-299.52 1165.91,-299.24 1168.06,-305.91"/>
</g>
<!-- Node3 -->
<g id="node3" class="node">
<title>Node3</title>
<g id="a_node3"><a xlink:href="a00020.html" target="_top" xlink:title=" ">
<polygon fill="white" stroke="black" points="463.5,-224.5 463.5,-243.5 552.5,-243.5 552.5,-224.5 463.5,-224.5"/>
<text text-anchor="middle" x="508" y="-231.5" font-family="Helvetica,sans-Serif" font-size="10.00">formainwindow.h</text>
</a>
</g>
</g>
<!-- Node2&#45;&gt;Node3 -->
<g id="edge2" class="edge">
<title>Node2&#45;&gt;Node3</title>
<path fill="none" stroke="midnightblue" d="M701.56,-280.44C661.6,-271.06 597.41,-255.99 554.02,-245.8"/>
<polygon fill="midnightblue" stroke="midnightblue" points="554.81,-242.39 544.27,-243.52 553.21,-249.21 554.81,-242.39"/>
</g>
<!-- Node3&#45;&gt;Node4 -->
<g id="edge3" class="edge">
<title>Node3&#45;&gt;Node4</title>
<path fill="none" stroke="midnightblue" d="M463.48,-229C387.53,-221.99 228.12,-206.45 94,-188 92.73,-187.83 91.44,-187.64 90.14,-187.46"/>
<polygon fill="midnightblue" stroke="midnightblue" points="90.48,-183.97 80.07,-185.94 89.43,-190.89 90.48,-183.97"/>
</g>
<!-- Node5 -->
<g id="node5" class="node">
<title>Node5</title>
<g id="a_node5"><a xlink:title=" ">
<polygon fill="white" stroke="#bfbfbf" points="814.5,-168.5 814.5,-187.5 895.5,-187.5 895.5,-168.5 814.5,-168.5"/>
<text text-anchor="middle" x="855" y="-175.5" font-family="Helvetica,sans-Serif" font-size="10.00">QMessageBox</text>
</a>
</g>
</g>
<!-- Node3&#45;&gt;Node5 -->
<g id="edge4" class="edge">
<title>Node3&#45;&gt;Node5</title>
<path fill="none" stroke="midnightblue" d="M552.59,-226.64C608.76,-218.54 708.49,-203.86 804.21,-188.09"/>
<polygon fill="midnightblue" stroke="midnightblue" points="805.06,-191.5 814.36,-186.41 803.92,-184.59 805.06,-191.5"/>
</g>
<!-- Node6 -->
<g id="node6" class="node">
<title>Node6</title>
<g id="a_node6"><a xlink:title=" ">
<polygon fill="white" stroke="#bfbfbf" points="913.5,-168.5 913.5,-187.5 968.5,-187.5 968.5,-168.5 913.5,-168.5"/>
<text text-anchor="middle" x="941" y="-175.5" font-family="Helvetica,sans-Serif" font-size="10.00">QWidget</text>
</a>
</g>
</g>
<!-- Node3&#45;&gt;Node6 -->
<g id="edge5" class="edge">
<title>Node3&#45;&gt;Node6</title>
<path fill="none" stroke="midnightblue" d="M552.64,-229.87C624.6,-224.41 770.85,-211.58 903.26,-188.12"/>
<polygon fill="midnightblue" stroke="midnightblue" points="903.95,-191.56 913.17,-186.34 902.71,-184.67 903.95,-191.56"/>
</g>
<!-- Node7 -->
<g id="node7" class="node">
<title>Node7</title>
<g id="a_node7"><a xlink:title=" ">
<polygon fill="white" stroke="#bfbfbf" points="757.5,-0.5 757.5,-19.5 806.5,-19.5 806.5,-0.5 757.5,-0.5"/>
<text text-anchor="middle" x="782" y="-7.5" font-family="Helvetica,sans-Serif" font-size="10.00">QTimer</text>
</a>
</g>
</g>
<!-- Node3&#45;&gt;Node7 -->
<g id="edge6" class="edge">
<title>Node3&#45;&gt;Node7</title>
<path fill="none" stroke="midnightblue" d="M552.75,-232.07C664.66,-229.27 949.71,-219.13 978,-188 1010.51,-152.23 1060.57,-172.98 930,-56 898.41,-27.7 849.48,-17.19 816.62,-13.29"/>
<polygon fill="midnightblue" stroke="midnightblue" points="816.87,-9.8 806.56,-12.25 816.14,-16.76 816.87,-9.8"/>
</g>
<!-- Node8 -->
<g id="node8" class="node">
<title>Node8</title>
<g id="a_node8"><a xlink:title=" ">
<polygon fill="white" stroke="#bfbfbf" points="536,-168.5 536,-187.5 616,-187.5 616,-168.5 536,-168.5"/>
<text text-anchor="middle" x="576" y="-175.5" font-family="Helvetica,sans-Serif" font-size="10.00">QResizeEvent</text>
</a>
</g>
</g>
<!-- Node3&#45;&gt;Node8 -->
<g id="edge7" class="edge">
<title>Node3&#45;&gt;Node8</title>
<path fill="none" stroke="midnightblue" d="M518.93,-224.32C529.17,-216.18 544.72,-203.84 557,-194.09"/>
<polygon fill="midnightblue" stroke="midnightblue" points="559.22,-196.79 564.88,-187.83 554.87,-191.31 559.22,-196.79"/>
</g>
<!-- Node9 -->
<g id="node9" class="node">
<title>Node9</title>
<g id="a_node9"><a xlink:title=" ">
<polygon fill="white" stroke="#bfbfbf" points="634.5,-168.5 634.5,-187.5 709.5,-187.5 709.5,-168.5 634.5,-168.5"/>
<text text-anchor="middle" x="672" y="-175.5" font-family="Helvetica,sans-Serif" font-size="10.00">QColorDialog</text>
</a>
</g>
</g>
<!-- Node3&#45;&gt;Node9 -->
<g id="edge8" class="edge">
<title>Node3&#45;&gt;Node9</title>
<path fill="none" stroke="midnightblue" d="M533.99,-224.44C561.7,-215.32 605.75,-200.81 636.62,-190.65"/>
<polygon fill="midnightblue" stroke="midnightblue" points="637.73,-193.97 646.14,-187.52 635.54,-187.32 637.73,-193.97"/>
</g>
<!-- Node10 -->
<g id="node10" class="node">
<title>Node10</title>
<g id="a_node10"><a xlink:title=" ">
<polygon fill="white" stroke="#bfbfbf" points="728,-168.5 728,-187.5 796,-187.5 796,-168.5 728,-168.5"/>
<text text-anchor="middle" x="762" y="-175.5" font-family="Helvetica,sans-Serif" font-size="10.00">QFileDialog</text>
</a>
</g>
</g>
<!-- Node3&#45;&gt;Node10 -->
<g id="edge9" class="edge">
<title>Node3&#45;&gt;Node10</title>
<path fill="none" stroke="midnightblue" d="M548.25,-224.44C594.38,-214.64 669.77,-198.61 717.59,-188.44"/>
<polygon fill="midnightblue" stroke="midnightblue" points="718.59,-191.81 727.64,-186.3 717.13,-184.96 718.59,-191.81"/>
</g>
<!-- Node11 -->
<g id="node11" class="node">
<title>Node11</title>
<g id="a_node11"><a xlink:title=" ">
<polygon fill="white" stroke="#bfbfbf" points="64,-56.5 64,-75.5 168,-75.5 168,-56.5 64,-56.5"/>
<text text-anchor="middle" x="116" y="-63.5" font-family="Helvetica,sans-Serif" font-size="10.00">QGraphicsRectItem</text>
</a>
</g>
</g>
<!-- Node3&#45;&gt;Node11 -->
<g id="edge10" class="edge">
<title>Node3&#45;&gt;Node11</title>
<path fill="none" stroke="midnightblue" d="M463.18,-230.83C367.52,-225.77 150.11,-211.74 127,-188 100.61,-160.89 105.8,-112.36 111.27,-85.74"/>
<polygon fill="midnightblue" stroke="midnightblue" points="114.73,-86.33 113.54,-75.8 107.9,-84.77 114.73,-86.33"/>
</g>
<!-- Node12 -->
<g id="node12" class="node">
<title>Node12</title>
<g id="a_node12"><a xlink:href="a00029.html" target="_top" xlink:title=" ">
<polygon fill="white" stroke="black" points="479,-112.5 479,-131.5 551,-131.5 551,-112.5 479,-112.5"/>
<text text-anchor="middle" x="515" y="-119.5" font-family="Helvetica,sans-Serif" font-size="10.00">mainscene.h</text>
</a>
</g>
</g>
<!-- Node3&#45;&gt;Node12 -->
<g id="edge11" class="edge">
<title>Node3&#45;&gt;Node12</title>
<path fill="none" stroke="midnightblue" d="M508.55,-224.37C509.68,-206.62 512.28,-165.67 513.82,-141.6"/>
<polygon fill="midnightblue" stroke="midnightblue" points="517.31,-141.79 514.45,-131.59 510.33,-141.35 517.31,-141.79"/>
</g>
<!-- Node25 -->
<g id="node25" class="node">
<title>Node25</title>
<g id="a_node25"><a xlink:href="a00056.html" target="_top" xlink:title=" ">
<polygon fill="white" stroke="black" points="208.5,-168.5 208.5,-187.5 273.5,-187.5 273.5,-168.5 208.5,-168.5"/>
<text text-anchor="middle" x="241" y="-175.5" font-family="Helvetica,sans-Serif" font-size="10.00">rectangle.h</text>
</a>
</g>
</g>
<!-- Node3&#45;&gt;Node25 -->
<g id="edge33" class="edge">
<title>Node3&#45;&gt;Node25</title>
<path fill="none" stroke="midnightblue" d="M463.78,-224.46C420.32,-216.01 351.84,-202.53 283.71,-188.33"/>
<polygon fill="midnightblue" stroke="midnightblue" points="284.17,-184.85 273.66,-186.23 282.73,-191.7 284.17,-184.85"/>
</g>
<!-- Node27 -->
<g id="node27" class="node">
<title>Node27</title>
<g id="a_node27"><a xlink:href="a00050.html" target="_top" xlink:title=" ">
<polygon fill="white" stroke="black" points="291.5,-168.5 291.5,-187.5 344.5,-187.5 344.5,-168.5 291.5,-168.5"/>
<text text-anchor="middle" x="318" y="-175.5" font-family="Helvetica,sans-Serif" font-size="10.00">ellipse.h</text>
</a>
</g>
</g>
<!-- Node3&#45;&gt;Node27 -->
<g id="edge39" class="edge">
<title>Node3&#45;&gt;Node27</title>
<path fill="none" stroke="midnightblue" d="M477.89,-224.44C444.47,-214.94 390.5,-199.61 354.65,-189.41"/>
<polygon fill="midnightblue" stroke="midnightblue" points="355.17,-185.93 344.59,-186.56 353.26,-192.66 355.17,-185.93"/>
</g>
<!-- Node28 -->
<g id="node28" class="node">
<title>Node28</title>
<g id="a_node28"><a xlink:href="a00008.html" target="_top" xlink:title=" ">
<polygon fill="white" stroke="black" points="362.5,-168.5 362.5,-187.5 421.5,-187.5 421.5,-168.5 362.5,-168.5"/>
<text text-anchor="middle" x="392" y="-175.5" font-family="Helvetica,sans-Serif" font-size="10.00">polygon.h</text>
</a>
</g>
</g>
<!-- Node3&#45;&gt;Node28 -->
<g id="edge41" class="edge">
<title>Node3&#45;&gt;Node28</title>
<path fill="none" stroke="midnightblue" d="M489.62,-224.44C470.78,-215.68 441.27,-201.94 419.62,-191.86"/>
<polygon fill="midnightblue" stroke="midnightblue" points="420.84,-188.56 410.29,-187.52 417.88,-194.91 420.84,-188.56"/>
</g>
<!-- Node29 -->
<g id="node29" class="node">
<title>Node29</title>
<g id="a_node29"><a xlink:href="a00047.html" target="_top" xlink:title=" ">
<polygon fill="white" stroke="black" points="440,-168.5 440,-187.5 480,-187.5 480,-168.5 440,-168.5"/>
<text text-anchor="middle" x="460" y="-175.5" font-family="Helvetica,sans-Serif" font-size="10.00">line.h</text>
</a>
</g>
</g>
<!-- Node3&#45;&gt;Node29 -->
<g id="edge43" class="edge">
<title>Node3&#45;&gt;Node29</title>
<path fill="none" stroke="midnightblue" d="M500.07,-224.08C493.15,-216.3 482.93,-204.8 474.55,-195.37"/>
<polygon fill="midnightblue" stroke="midnightblue" points="477.04,-192.9 467.78,-187.75 471.81,-197.55 477.04,-192.9"/>
</g>
<!-- Node30 -->
<g id="node30" class="node">
<title>Node30</title>
<g id="a_node30"><a xlink:href="a00035.html" target="_top" xlink:title=" ">
<polygon fill="white" stroke="black" points="136,-168.5 136,-187.5 190,-187.5 190,-168.5 136,-168.5"/>
<text text-anchor="middle" x="163" y="-175.5" font-family="Helvetica,sans-Serif" font-size="10.00">broken.h</text>
</a>
</g>
</g>
<!-- Node3&#45;&gt;Node30 -->
<g id="edge45" class="edge">
<title>Node3&#45;&gt;Node30</title>
<path fill="none" stroke="midnightblue" d="M463.5,-227.94C405.18,-221 299.56,-207.36 199.99,-188.02"/>
<polygon fill="midnightblue" stroke="midnightblue" points="200.55,-184.57 190.06,-186.07 199.2,-191.44 200.55,-184.57"/>
</g>
<!-- Node12&#45;&gt;Node7 -->
<g id="edge16" class="edge">
<title>Node12&#45;&gt;Node7</title>
<path fill="none" stroke="midnightblue" d="M551.38,-117.27C607.19,-110.98 710.67,-96.85 741,-76 757.46,-64.69 768.68,-44.38 775.17,-29.47"/>
<polygon fill="midnightblue" stroke="midnightblue" points="778.59,-30.35 779.07,-19.77 772.09,-27.74 778.59,-30.35"/>
</g>
<!-- Node13 -->
<g id="node13" class="node">
<title>Node13</title>
<g id="a_node13"><a xlink:title=" ">
<polygon fill="white" stroke="#bfbfbf" points="543.5,-0.5 543.5,-19.5 634.5,-19.5 634.5,-0.5 543.5,-0.5"/>
<text text-anchor="middle" x="589" y="-7.5" font-family="Helvetica,sans-Serif" font-size="10.00">QGraphicsScene</text>
</a>
</g>
</g>
<!-- Node12&#45;&gt;Node13 -->
<g id="edge12" class="edge">
<title>Node12&#45;&gt;Node13</title>
<path fill="none" stroke="midnightblue" d="M551.16,-115.66C574.83,-110.08 604.04,-98.77 619,-76 629.17,-60.52 617.33,-41.03 605.66,-27.44"/>
<polygon fill="midnightblue" stroke="midnightblue" points="607.97,-24.8 598.61,-19.84 602.84,-29.55 607.97,-24.8"/>
</g>
<!-- Node14 -->
<g id="node14" class="node">
<title>Node14</title>
<g id="a_node14"><a xlink:title=" ">
<polygon fill="white" stroke="#bfbfbf" points="344,-0.5 344,-19.5 490,-19.5 490,-0.5 344,-0.5"/>
<text text-anchor="middle" x="417" y="-7.5" font-family="Helvetica,sans-Serif" font-size="10.00">QGraphicsSceneMouseEvent</text>
</a>
</g>
</g>
<!-- Node12&#45;&gt;Node14 -->
<g id="edge13" class="edge">
<title>Node12&#45;&gt;Node14</title>
<path fill="none" stroke="midnightblue" d="M507.31,-112.37C490.99,-94.05 452.68,-51.05 431.58,-27.36"/>
<polygon fill="midnightblue" stroke="midnightblue" points="433.92,-24.73 424.65,-19.59 428.69,-29.39 433.92,-24.73"/>
</g>
<!-- Node15 -->
<g id="node15" class="node">
<title>Node15</title>
<g id="a_node15"><a xlink:title=" ">
<polygon fill="white" stroke="#bfbfbf" points="242.5,-0.5 242.5,-19.5 325.5,-19.5 325.5,-0.5 242.5,-0.5"/>
<text text-anchor="middle" x="284" y="-7.5" font-family="Helvetica,sans-Serif" font-size="10.00">QGraphicsItem</text>
</a>
</g>
</g>
<!-- Node12&#45;&gt;Node15 -->
<g id="edge14" class="edge">
<title>Node12&#45;&gt;Node15</title>
<path fill="none" stroke="midnightblue" d="M478.95,-119.63C439.31,-116.54 375.25,-106.74 330,-76 312.72,-64.26 299.81,-43.73 292.13,-28.88"/>
<polygon fill="midnightblue" stroke="midnightblue" points="295.18,-27.15 287.67,-19.68 288.89,-30.2 295.18,-27.15"/>
</g>
<!-- Node16 -->
<g id="node16" class="node">
<title>Node16</title>
<g id="a_node16"><a xlink:title=" ">
<polygon fill="white" stroke="#bfbfbf" points="483.5,-56.5 483.5,-75.5 538.5,-75.5 538.5,-56.5 483.5,-56.5"/>
<text text-anchor="middle" x="511" y="-63.5" font-family="Helvetica,sans-Serif" font-size="10.00">QPainter</text>
</a>
</g>
</g>
<!-- Node12&#45;&gt;Node16 -->
<g id="edge15" class="edge">
<title>Node12&#45;&gt;Node16</title>
<path fill="none" stroke="midnightblue" d="M514.34,-112.08C513.82,-105.01 513.06,-94.86 512.41,-85.99"/>
<polygon fill="midnightblue" stroke="midnightblue" points="515.88,-85.47 511.65,-75.75 508.9,-85.98 515.88,-85.47"/>
</g>
<!-- Node17 -->
<g id="node17" class="node">
<title>Node17</title>
<g id="a_node17"><a xlink:title=" ">
<polygon fill="white" stroke="#bfbfbf" points="675.5,-0.5 675.5,-19.5 728.5,-19.5 728.5,-0.5 675.5,-0.5"/>
<text text-anchor="middle" x="702" y="-7.5" font-family="Helvetica,sans-Serif" font-size="10.00">QDebug</text>
</a>
</g>
</g>
<!-- Node12&#45;&gt;Node17 -->
<g id="edge17" class="edge">
<title>Node12&#45;&gt;Node17</title>
<path fill="none" stroke="midnightblue" d="M551.26,-118.58C605.46,-114.13 703.55,-102.53 725,-76 736.34,-61.97 726.36,-41.93 716.23,-27.82"/>
<polygon fill="midnightblue" stroke="midnightblue" points="718.98,-25.66 710.09,-19.91 713.45,-29.95 718.98,-25.66"/>
</g>
<!-- Node18 -->
<g id="node18" class="node">
<title>Node18</title>
<g id="a_node18"><a xlink:title=" ">
<polygon fill="white" stroke="#bfbfbf" points="556.5,-56.5 556.5,-75.5 609.5,-75.5 609.5,-56.5 556.5,-56.5"/>
<text text-anchor="middle" x="583" y="-63.5" font-family="Helvetica,sans-Serif" font-size="10.00">QCursor</text>
</a>
</g>
</g>
<!-- Node12&#45;&gt;Node18 -->
<g id="edge18" class="edge">
<title>Node12&#45;&gt;Node18</title>
<path fill="none" stroke="midnightblue" d="M525.93,-112.32C536.17,-104.18 551.72,-91.84 564,-82.09"/>
<polygon fill="midnightblue" stroke="midnightblue" points="566.22,-84.79 571.88,-75.83 561.87,-79.31 566.22,-84.79"/>
</g>
<!-- Node19 -->
<g id="node19" class="node">
<title>Node19</title>
<g id="a_node19"><a xlink:href="a00005.html" target="_top" xlink:title=" ">
<polygon fill="white" stroke="black" points="339.5,-56.5 339.5,-75.5 388.5,-75.5 388.5,-56.5 339.5,-56.5"/>
<text text-anchor="middle" x="364" y="-63.5" font-family="Helvetica,sans-Serif" font-size="10.00">figure.h</text>
</a>
</g>
</g>
<!-- Node12&#45;&gt;Node19 -->
<g id="edge19" class="edge">
<title>Node12&#45;&gt;Node19</title>
<path fill="none" stroke="midnightblue" d="M491.07,-112.44C465.78,-103.4 425.7,-89.06 397.32,-78.92"/>
<polygon fill="midnightblue" stroke="midnightblue" points="398.41,-75.59 387.81,-75.52 396.05,-82.18 398.41,-75.59"/>
</g>
<!-- Node20 -->
<g id="node20" class="node">
<title>Node20</title>
<g id="a_node20"><a xlink:href="a00059.html" target="_top" xlink:title=" ">
<polygon fill="white" stroke="black" points="666.5,-56.5 666.5,-75.5 715.5,-75.5 715.5,-56.5 666.5,-56.5"/>
<text text-anchor="middle" x="691" y="-63.5" font-family="Helvetica,sans-Serif" font-size="10.00">brush.h</text>
</a>
</g>
</g>
<!-- Node12&#45;&gt;Node20 -->
<g id="edge23" class="edge">
<title>Node12&#45;&gt;Node20</title>
<path fill="none" stroke="midnightblue" d="M542.89,-112.44C573.72,-102.98 623.41,-87.74 656.63,-77.55"/>
<polygon fill="midnightblue" stroke="midnightblue" points="657.83,-80.84 666.37,-74.56 655.78,-74.15 657.83,-80.84"/>
</g>
<!-- Node21 -->
<g id="node21" class="node">
<title>Node21</title>
<g id="a_node21"><a xlink:href="a00014.html" target="_top" xlink:title=" ">
<polygon fill="white" stroke="black" points="188,-56.5 188,-75.5 244,-75.5 244,-56.5 188,-56.5"/>
<text text-anchor="middle" x="216" y="-63.5" font-family="Helvetica,sans-Serif" font-size="10.00">floodfill.h</text>
</a>
</g>
</g>
<!-- Node12&#45;&gt;Node21 -->
<g id="edge28" class="edge">
<title>Node12&#45;&gt;Node21</title>
<path fill="none" stroke="midnightblue" d="M478.9,-115.03C429.27,-106.74 337.21,-91.05 259,-76 257.5,-75.71 255.98,-75.41 254.43,-75.11"/>
<polygon fill="midnightblue" stroke="midnightblue" points="254.69,-71.59 244.19,-73.04 253.3,-78.45 254.69,-71.59"/>
</g>
<!-- Node12&#45;&gt;Node24 -->
<g id="edge32" class="edge">
<title>Node12&#45;&gt;Node24</title>
<path fill="none" stroke="midnightblue" d="M551.25,-115.72C619.42,-105.8 766.56,-84.39 840.96,-73.56"/>
<polygon fill="midnightblue" stroke="midnightblue" points="841.57,-77 850.96,-72.1 840.56,-70.08 841.57,-77"/>
</g>
<!-- Node19&#45;&gt;Node13 -->
<g id="edge20" class="edge">
<title>Node19&#45;&gt;Node13</title>
<path fill="none" stroke="midnightblue" d="M388.51,-59.12C425.65,-50.2 496.8,-33.13 543.58,-21.9"/>
<polygon fill="midnightblue" stroke="midnightblue" points="544.55,-25.27 553.46,-19.53 542.92,-18.46 544.55,-25.27"/>
</g>
<!-- Node19&#45;&gt;Node14 -->
<g id="edge22" class="edge">
<title>Node19&#45;&gt;Node14</title>
<path fill="none" stroke="midnightblue" d="M372.75,-56.08C380.47,-48.22 391.9,-36.57 401.22,-27.08"/>
<polygon fill="midnightblue" stroke="midnightblue" points="403.9,-29.34 408.41,-19.75 398.91,-24.44 403.9,-29.34"/>
</g>
<!-- Node19&#45;&gt;Node15 -->
<g id="edge21" class="edge">
<title>Node19&#45;&gt;Node15</title>
<path fill="none" stroke="midnightblue" d="M351.15,-56.32C338.78,-47.98 319.87,-35.21 305.26,-25.35"/>
<polygon fill="midnightblue" stroke="midnightblue" points="307.07,-22.35 296.82,-19.65 303.15,-28.15 307.07,-22.35"/>
</g>
<!-- Node20&#45;&gt;Node7 -->
<g id="edge26" class="edge">
<title>Node20&#45;&gt;Node7</title>
<path fill="none" stroke="midnightblue" d="M705.62,-56.32C719.95,-47.82 742.01,-34.73 758.75,-24.8"/>
<polygon fill="midnightblue" stroke="midnightblue" points="760.6,-27.77 767.42,-19.65 757.03,-21.75 760.6,-27.77"/>
</g>
<!-- Node20&#45;&gt;Node13 -->
<g id="edge24" class="edge">
<title>Node20&#45;&gt;Node13</title>
<path fill="none" stroke="midnightblue" d="M674.61,-56.32C658.33,-47.7 633.13,-34.36 614.28,-24.39"/>
<polygon fill="midnightblue" stroke="midnightblue" points="615.82,-21.24 605.35,-19.65 612.55,-27.43 615.82,-21.24"/>
</g>
<!-- Node20&#45;&gt;Node14 -->
<g id="edge25" class="edge">
<title>Node20&#45;&gt;Node14</title>
<path fill="none" stroke="midnightblue" d="M666.2,-60.11C622.12,-51.42 529.2,-33.11 470.12,-21.47"/>
<polygon fill="midnightblue" stroke="midnightblue" points="470.71,-18.02 460.22,-19.52 469.36,-24.89 470.71,-18.02"/>
</g>
<!-- Node20&#45;&gt;Node17 -->
<g id="edge27" class="edge">
<title>Node20&#45;&gt;Node17</title>
<path fill="none" stroke="midnightblue" d="M692.82,-56.08C694.27,-48.93 696.37,-38.64 698.19,-29.69"/>
<polygon fill="midnightblue" stroke="midnightblue" points="701.65,-30.25 700.22,-19.75 694.79,-28.85 701.65,-30.25"/>
</g>
<!-- Node21&#45;&gt;Node15 -->
<g id="edge30" class="edge">
<title>Node21&#45;&gt;Node15</title>
<path fill="none" stroke="midnightblue" d="M226.93,-56.32C237.17,-48.18 252.72,-35.84 265,-26.09"/>
<polygon fill="midnightblue" stroke="midnightblue" points="267.22,-28.79 272.88,-19.83 262.87,-23.31 267.22,-28.79"/>
</g>
<!-- Node22 -->
<g id="node22" class="node">
<title>Node22</title>
<g id="a_node22"><a xlink:title=" ">
<polygon fill="white" stroke="#bfbfbf" points="177.5,-0.5 177.5,-19.5 224.5,-19.5 224.5,-0.5 177.5,-0.5"/>
<text text-anchor="middle" x="201" y="-7.5" font-family="Helvetica,sans-Serif" font-size="10.00">QColor</text>
</a>
</g>
</g>
<!-- Node21&#45;&gt;Node22 -->
<g id="edge29" class="edge">
<title>Node21&#45;&gt;Node22</title>
<path fill="none" stroke="midnightblue" d="M213.52,-56.08C211.51,-48.85 208.61,-38.41 206.11,-29.4"/>
<polygon fill="midnightblue" stroke="midnightblue" points="209.48,-28.45 203.43,-19.75 202.74,-30.32 209.48,-28.45"/>
</g>
<!-- Node23 -->
<g id="node23" class="node">
<title>Node23</title>
<g id="a_node23"><a xlink:title=" ">
<polygon fill="white" stroke="#bfbfbf" points="70.5,-0.5 70.5,-19.5 159.5,-19.5 159.5,-0.5 70.5,-0.5"/>
<text text-anchor="middle" x="115" y="-7.5" font-family="Helvetica,sans-Serif" font-size="10.00">QGraphicsEffect</text>
</a>
</g>
</g>
<!-- Node21&#45;&gt;Node23 -->
<g id="edge31" class="edge">
<title>Node21&#45;&gt;Node23</title>
<path fill="none" stroke="midnightblue" d="M199.77,-56.32C183.65,-47.7 158.7,-34.36 140.04,-24.39"/>
<polygon fill="midnightblue" stroke="midnightblue" points="141.66,-21.28 131.19,-19.65 138.36,-27.46 141.66,-21.28"/>
</g>
<!-- Node26 -->
<g id="node26" class="node">
<title>Node26</title>
<g id="a_node26"><a xlink:href="a00053.html" target="_top" xlink:title=" ">
<polygon fill="white" stroke="black" points="277.5,-112.5 277.5,-131.5 358.5,-131.5 358.5,-112.5 277.5,-112.5"/>
<text text-anchor="middle" x="318" y="-119.5" font-family="Helvetica,sans-Serif" font-size="10.00">forfigureheirs.h</text>
</a>
</g>
</g>
<!-- Node25&#45;&gt;Node26 -->
<g id="edge34" class="edge">
<title>Node25&#45;&gt;Node26</title>
<path fill="none" stroke="midnightblue" d="M253.37,-168.32C265.16,-160.06 283.13,-147.45 297.14,-137.63"/>
<polygon fill="midnightblue" stroke="midnightblue" points="299.48,-140.26 305.66,-131.65 295.46,-134.53 299.48,-140.26"/>
</g>
<!-- Node26&#45;&gt;Node11 -->
<g id="edge36" class="edge">
<title>Node26&#45;&gt;Node11</title>
<path fill="none" stroke="midnightblue" d="M285.99,-112.44C251.27,-103.16 195.71,-88.31 157.62,-78.13"/>
<polygon fill="midnightblue" stroke="midnightblue" points="158.42,-74.72 147.86,-75.52 156.61,-81.48 158.42,-74.72"/>
</g>
<!-- Node26&#45;&gt;Node13 -->
<g id="edge35" class="edge">
<title>Node26&#45;&gt;Node13</title>
<path fill="none" stroke="midnightblue" d="M338.28,-112.48C368.15,-99.95 425.77,-75.91 475,-56 502.84,-44.74 534.63,-32.22 557.55,-23.25"/>
<polygon fill="midnightblue" stroke="midnightblue" points="559.06,-26.42 567.1,-19.52 556.51,-19.9 559.06,-26.42"/>
</g>
<!-- Node26&#45;&gt;Node14 -->
<g id="edge37" class="edge">
<title>Node26&#45;&gt;Node14</title>
<path fill="none" stroke="midnightblue" d="M317.33,-112.49C316.73,-99.12 317.42,-72.96 330,-56 341.26,-40.81 359.15,-30.33 375.79,-23.33"/>
<polygon fill="midnightblue" stroke="midnightblue" points="377.32,-26.49 385.38,-19.6 374.79,-19.96 377.32,-26.49"/>
</g>
<!-- Node26&#45;&gt;Node19 -->
<g id="edge38" class="edge">
<title>Node26&#45;&gt;Node19</title>
<path fill="none" stroke="midnightblue" d="M325.6,-112.08C332.23,-104.3 342.02,-92.8 350.06,-83.37"/>
<polygon fill="midnightblue" stroke="midnightblue" points="352.73,-85.63 356.55,-75.75 347.4,-81.09 352.73,-85.63"/>
</g>
<!-- Node27&#45;&gt;Node26 -->
<g id="edge40" class="edge">
<title>Node27&#45;&gt;Node26</title>
<path fill="none" stroke="midnightblue" d="M318,-168.08C318,-161.01 318,-150.86 318,-141.99"/>
<polygon fill="midnightblue" stroke="midnightblue" points="321.5,-141.75 318,-131.75 314.5,-141.75 321.5,-141.75"/>
</g>
<!-- Node28&#45;&gt;Node26 -->
<g id="edge42" class="edge">
<title>Node28&#45;&gt;Node26</title>
<path fill="none" stroke="midnightblue" d="M380.11,-168.32C368.85,-160.11 351.71,-147.6 338.29,-137.81"/>
<polygon fill="midnightblue" stroke="midnightblue" points="340.25,-134.9 330.11,-131.83 336.12,-140.56 340.25,-134.9"/>
</g>
<!-- Node29&#45;&gt;Node26 -->
<g id="edge44" class="edge">
<title>Node29&#45;&gt;Node26</title>
<path fill="none" stroke="midnightblue" d="M439.96,-169.38C416.67,-160.52 377.93,-145.79 350.36,-135.31"/>
<polygon fill="midnightblue" stroke="midnightblue" points="351.35,-131.94 340.76,-131.65 348.86,-138.48 351.35,-131.94"/>
</g>
<!-- Node30&#45;&gt;Node26 -->
<g id="edge46" class="edge">
<title>Node30&#45;&gt;Node26</title>
<path fill="none" stroke="midnightblue" d="M187.56,-168.44C213.52,-159.4 254.67,-145.06 283.8,-134.92"/>
<polygon fill="midnightblue" stroke="midnightblue" points="285.26,-138.11 293.55,-131.52 282.96,-131.5 285.26,-138.11"/>
</g>
</g>
</svg>
