<?xml version="1.0" encoding="UTF-8" standalone="no"?>
<!DOCTYPE svg PUBLIC "-//W3C//DTD SVG 1.1//EN"
 "http://www.w3.org/Graphics/SVG/1.1/DTD/svg11.dtd">
<!-- Generated by graphviz version 3.0.0 (20220226.1711)
 -->
<!-- Title: QMainWindow Pages: 1 -->
<svg width="131pt" height="182pt"
 viewBox="0.00 0.00 131.00 182.00" xmlns="http://www.w3.org/2000/svg" xmlns:xlink="http://www.w3.org/1999/xlink">
<g id="graph0" class="graph" transform="scale(1 1) rotate(0) translate(4 178)">
<title>QMainWindow</title>
<polygon fill="white" stroke="transparent" points="-4,4 -4,-178 127,-178 127,4 -4,4"/>
<!-- Node1 -->
<g id="node1" class="node">
<title>Node1</title>
<g id="a_node1"><a xlink:title=" ">
<polygon fill="#bfbfbf" stroke="black" points="21.5,-116.5 21.5,-173.5 101.5,-173.5 101.5,-116.5 21.5,-116.5"/>
<text text-anchor="middle" x="61.5" y="-161.5" font-family="Helvetica,sans-Serif" font-size="10.00">QMainWindow</text>
<polyline fill="none" stroke="black" points="21.5,-154.5 101.5,-154.5 "/>
<text text-anchor="middle" x="61.5" y="-142.5" font-family="Helvetica,sans-Serif" font-size="10.00"> </text>
<polyline fill="none" stroke="black" points="21.5,-135.5 101.5,-135.5 "/>
<text text-anchor="middle" x="61.5" y="-123.5" font-family="Helvetica,sans-Serif" font-size="10.00"> </text>
</a>
</g>
</g>
<!-- Node2 -->
<g id="node2" class="node">
<title>Node2</title>
<g id="a_node2"><a xlink:href="a00106.html" target="_top" xlink:title=" ">
<polygon fill="white" stroke="black" points="0,-0.5 0,-79.5 123,-79.5 123,-0.5 0,-0.5"/>
<text text-anchor="middle" x="61.5" y="-67.5" font-family="Helvetica,sans-Serif" font-size="10.00">MainWindow</text>
<polyline fill="none" stroke="black" points="0,-60.5 123,-60.5 "/>
<text text-anchor="middle" x="61.5" y="-48.5" font-family="Helvetica,sans-Serif" font-size="10.00"> </text>
<polyline fill="none" stroke="black" points="0,-41.5 123,-41.5 "/>
<text text-anchor="start" x="8" y="-29.5" font-family="Helvetica,sans-Serif" font-size="10.00">+ MainWindow(QWidget</text>
<text text-anchor="start" x="8" y="-18.5" font-family="Helvetica,sans-Serif" font-size="10.00"> *parent=nullptr)</text>
<text text-anchor="start" x="8" y="-7.5" font-family="Helvetica,sans-Serif" font-size="10.00">+ ~MainWindow()</text>
</a>
</g>
</g>
<!-- Node1&#45;&gt;Node2 -->
<g id="edge1" class="edge">
<title>Node1&#45;&gt;Node2</title>
<path fill="none" stroke="midnightblue" d="M61.5,-106.16C61.5,-97.47 61.5,-88.23 61.5,-79.52"/>
<polygon fill="none" stroke="midnightblue" points="58,-106.4 61.5,-116.4 65,-106.4 58,-106.4"/>
</g>
</g>
</svg>
