<?xml version="1.0" encoding="UTF-8" standalone="no"?>
<!DOCTYPE svg PUBLIC "-//W3C//DTD SVG 1.1//EN"
 "http://www.w3.org/Graphics/SVG/1.1/DTD/svg11.dtd">
<!-- Generated by graphviz version 3.0.0 (20220226.1711)
 -->
<!-- Title: Graphical Class Hierarchy Pages: 1 -->
<svg width="149pt" height="180pt"
 viewBox="0.00 0.00 149.00 180.00" xmlns="http://www.w3.org/2000/svg" xmlns:xlink="http://www.w3.org/1999/xlink">
<g id="graph0" class="graph" transform="scale(1 1) rotate(0) translate(4 176)">
<title>Graphical Class Hierarchy</title>
<polygon fill="white" stroke="transparent" points="-4,4 -4,-176 145,-176 145,4 -4,4"/>
<!-- Node0 -->
<g id="node1" class="node">
<title>Node0</title>
<g id="a_node1"><a xlink:href="a00090.html" target="_top" xlink:title=" ">
<polygon fill="white" stroke="black" points="0,-76.5 0,-95.5 44,-95.5 44,-76.5 0,-76.5"/>
<text text-anchor="middle" x="22" y="-83.5" font-family="Helvetica,sans-Serif" font-size="10.00">Figure</text>
</a>
</g>
</g>
<!-- Node1 -->
<g id="node2" class="node">
<title>Node1</title>
<g id="a_node2"><a xlink:href="a00078.html" target="_top" xlink:title=" ">
<polygon fill="white" stroke="black" points="87,-152.5 87,-171.5 134,-171.5 134,-152.5 87,-152.5"/>
<text text-anchor="middle" x="110.5" y="-159.5" font-family="Helvetica,sans-Serif" font-size="10.00">Broken</text>
</a>
</g>
</g>
<!-- Node0&#45;&gt;Node1 -->
<g id="edge1" class="edge">
<title>Node0&#45;&gt;Node1</title>
<path fill="none" stroke="midnightblue" d="M38.17,-102.99C49.19,-114.86 64.78,-130.72 80,-143 84.08,-146.29 88.74,-149.51 93.15,-152.34"/>
<polygon fill="midnightblue" stroke="midnightblue" points="40.66,-100.53 31.33,-95.5 35.49,-105.25 40.66,-100.53"/>
</g>
<!-- Node2 -->
<g id="node3" class="node">
<title>Node2</title>
<g id="a_node3"><a xlink:href="a00086.html" target="_top" xlink:title=" ">
<polygon fill="white" stroke="black" points="87.5,-114.5 87.5,-133.5 133.5,-133.5 133.5,-114.5 87.5,-114.5"/>
<text text-anchor="middle" x="110.5" y="-121.5" font-family="Helvetica,sans-Serif" font-size="10.00">Ellipse</text>
</a>
</g>
</g>
<!-- Node0&#45;&gt;Node2 -->
<g id="edge2" class="edge">
<title>Node0&#45;&gt;Node2</title>
<path fill="none" stroke="midnightblue" d="M53.84,-99.55C65.06,-104.48 77.5,-109.94 87.76,-114.45"/>
<polygon fill="midnightblue" stroke="midnightblue" points="54.95,-96.21 44.38,-95.39 52.13,-102.62 54.95,-96.21"/>
</g>
<!-- Node3 -->
<g id="node4" class="node">
<title>Node3</title>
<g id="a_node4"><a xlink:href="a00098.html" target="_top" xlink:title=" ">
<polygon fill="white" stroke="black" points="93,-76.5 93,-95.5 128,-95.5 128,-76.5 93,-76.5"/>
<text text-anchor="middle" x="110.5" y="-83.5" font-family="Helvetica,sans-Serif" font-size="10.00">Line</text>
</a>
</g>
</g>
<!-- Node0&#45;&gt;Node3 -->
<g id="edge3" class="edge">
<title>Node0&#45;&gt;Node3</title>
<path fill="none" stroke="midnightblue" d="M54.42,-86C67.47,-86 82.08,-86 92.97,-86"/>
<polygon fill="midnightblue" stroke="midnightblue" points="54.38,-82.5 44.38,-86 54.38,-89.5 54.38,-82.5"/>
</g>
<!-- Node4 -->
<g id="node5" class="node">
<title>Node4</title>
<g id="a_node5"><a xlink:href="a00110.html" target="_top" xlink:title=" ">
<polygon fill="white" stroke="black" points="84.5,-38.5 84.5,-57.5 136.5,-57.5 136.5,-38.5 84.5,-38.5"/>
<text text-anchor="middle" x="110.5" y="-45.5" font-family="Helvetica,sans-Serif" font-size="10.00">Polygon</text>
</a>
</g>
</g>
<!-- Node0&#45;&gt;Node4 -->
<g id="edge4" class="edge">
<title>Node0&#45;&gt;Node4</title>
<path fill="none" stroke="midnightblue" d="M53.84,-72.45C65.06,-67.52 77.5,-62.06 87.76,-57.55"/>
<polygon fill="midnightblue" stroke="midnightblue" points="52.13,-69.38 44.38,-76.61 54.95,-75.79 52.13,-69.38"/>
</g>
<!-- Node5 -->
<g id="node6" class="node">
<title>Node5</title>
<g id="a_node6"><a xlink:href="a00114.html" target="_top" xlink:title=" ">
<polygon fill="white" stroke="black" points="80,-0.5 80,-19.5 141,-19.5 141,-0.5 80,-0.5"/>
<text text-anchor="middle" x="110.5" y="-7.5" font-family="Helvetica,sans-Serif" font-size="10.00">Rectangle</text>
</a>
</g>
</g>
<!-- Node0&#45;&gt;Node5 -->
<g id="edge5" class="edge">
<title>Node0&#45;&gt;Node5</title>
<path fill="none" stroke="midnightblue" d="M38.17,-69.01C49.19,-57.14 64.78,-41.28 80,-29 84.08,-25.71 88.74,-22.49 93.15,-19.66"/>
<polygon fill="midnightblue" stroke="midnightblue" points="35.49,-66.75 31.33,-76.5 40.66,-71.47 35.49,-66.75"/>
</g>
</g>
</svg>
